<?xml version="1.0" encoding="utf-8"?>
<svg xmlns="http://www.w3.org/2000/svg"
    xmlns:xlink="http://www.w3.org/1999/xlink"
    width="320" height="320" viewBox="-10 -10 320 320">
<defs>
<style type="text/css"><![CDATA[
line {
    stroke: #000000;
    stroke-linecap: square;
    stroke-width: 5;
}
]]></style>
</defs>
<line x1="30.0" y1="30.0" x2="30.0" y2="60.0"/>
<line x1="30.0" y1="60.0" x2="30.0" y2="90.0"/>
<line x1="30.0" y1="90.0" x2="30.0" y2="120.0"/>
<line x1="0.0" y1="150.0" x2="30.0" y2="150.0"/>
<line x1="30.0" y1="210.0" x2="30.0" y2="240.0"/>
<line x1="0.0" y1="270.0" x2="30.0" y2="270.0"/>
<line x1="0.0" y1="300.0" x2="30.0" y2="300.0"/>
<line x1="60.0" y1="0.0" x2="60.0" y2="30.0"/>
<line x1="60.0" y1="60.0" x2="60.0" y2="90.0"/>
<line x1="30.0" y1="120.0" x2="60.0" y2="120.0"/>
<line x1="60.0" y1="120.0" x2="60.0" y2="150.0"/>
<line x1="30.0" y1="180.0" x2="60.0" y2="180.0"/>
<line x1="60.0" y1="150.0" x2="60.0" y2="180.0"/>
<line x1="30.0" y1="210.0" x2="60.0" y2="210.0"/>
<line x1="30.0" y1="240.0" x2="60.0" y2="240.0"/>
<line x1="30.0" y1="270.0" x2="60.0" y2="270.0"/>
<line x1="30.0" y1="300.0" x2="60.0" y2="300.0"/>
<line x1="90.0" y1="0.0" x2="90.0" y2="30.0"/>
<line x1="90.0" y1="30.0" x2="90.0" y2="60.0"/>
<line x1="60.0" y1="90.0" x2="90.0" y2="90.0"/>
<line x1="90.0" y1="60.0" x2="90.0" y2="90.0"/>
<line x1="60.0" y1="120.0" x2="90.0" y2="120.0"/>
<line x1="90.0" y1="90.0" x2="90.0" y2="120.0"/>
<line x1="90.0" y1="120.0" x2="90.0" y2="150.0"/>
<line x1="60.0" y1="210.0" x2="90.0" y2="210.0"/>
<line x1="90.0" y1="210.0" x2="90.0" y2="240.0"/>
<line x1="90.0" y1="240.0" x2="90.0" y2="270.0"/>
<line x1="60.0" y1="300.0" x2="90.0" y2="300.0"/>
<line x1="120.0" y1="0.0" x2="120.0" y2="30.0"/>
<line x1="120.0" y1="30.0" x2="120.0" y2="60.0"/>
<line x1="90.0" y1="90.0" x2="120.0" y2="90.0"/>
<line x1="90.0" y1="150.0" x2="120.0" y2="150.0"/>
<line x1="120.0" y1="120.0" x2="120.0" y2="150.0"/>
<line x1="90.0" y1="180.0" x2="120.0" y2="180.0"/>
<line x1="120.0" y1="150.0" x2="120.0" y2="180.0"/>
<line x1="90.0" y1="210.0" x2="120.0" y2="210.0"/>
<line x1="90.0" y1="270.0" x2="120.0" y2="270.0"/>
<line x1="90.0" y1="300.0" x2="120.0" y2="300.0"/>
<line x1="120.0" y1="270.0" x2="120.0" y2="300.0"/>
<line x1="150.0" y1="0.0" x2="150.0" y2="30.0"/>
<line x1="120.0" y1="60.0" x2="150.0" y2="60.0"/>
<line x1="120.0" y1="90.0" x2="150.0" y2="90.0"/>
<line x1="150.0" y1="120.0" x2="150.0" y2="150.0"/>
<line x1="120.0" y1="180.0" x2="150.0" y2="180.0"/>
<line x1="120.0" y1="240.0" x2="150.0" y2="240.0"/>
<line x1="150.0" y1="210.0" x2="150.0" y2="240.0"/>
<line x1="150.0" y1="240.0" x2="150.0" y2="270.0"/>
<line x1="120.0" y1="300.0" x2="150.0" y2="300.0"/>
<line x1="150.0" y1="60.0" x2="180.0" y2="60.0"/>
<line x1="180.0" y1="30.0" x2="180.0" y2="60.0"/>
<line x1="150.0" y1="90.0" x2="180.0" y2="90.0"/>
<line x1="180.0" y1="90.0" x2="180.0" y2="120.0"/>
<line x1="150.0" y1="150.0" x2="180.0" y2="150.0"/>
<line x1="150.0" y1="180.0" x2="180.0" y2="180.0"/>
<line x1="150.0" y1="210.0" x2="180.0" y2="210.0"/>
<line x1="180.0" y1="240.0" x2="180.0" y2="270.0"/>
<line x1="150.0" y1="300.0" x2="180.0" y2="300.0"/>
<line x1="180.0" y1="270.0" x2="180.0" y2="300.0"/>
<line x1="210.0" y1="0.0" x2="210.0" y2="30.0"/>
<line x1="210.0" y1="30.0" x2="210.0" y2="60.0"/>
<line x1="210.0" y1="60.0" x2="210.0" y2="90.0"/>
<line x1="180.0" y1="120.0" x2="210.0" y2="120.0"/>
<line x1="180.0" y1="150.0" x2="210.0" y2="150.0"/>
<line x1="180.0" y1="180.0" x2="210.0" y2="180.0"/>
<line x1="180.0" y1="210.0" x2="210.0" y2="210.0"/>
<line x1="210.0" y1="180.0" x2="210.0" y2="210.0"/>
<line x1="210.0" y1="240.0" x2="210.0" y2="270.0"/>
<line x1="180.0" y1="300.0" x2="210.0" y2="300.0"/>
<line x1="210.0" y1="90.0" x2="240.0" y2="90.0"/>
<line x1="240.0" y1="60.0" x2="240.0" y2="90.0"/>
<line x1="240.0" y1="90.0" x2="240.0" y2="120.0"/>
<line x1="210.0" y1="150.0" x2="240.0" y2="150.0"/>
<line x1="240.0" y1="120.0" x2="240.0" y2="150.0"/>
<line x1="240.0" y1="150.0" x2="240.0" y2="180.0"/>
<line x1="210.0" y1="210.0" x2="240.0" y2="210.0"/>
<line x1="210.0" y1="240.0" x2="240.0" y2="240.0"/>
<line x1="240.0" y1="210.0" x2="240.0" y2="240.0"/>
<line x1="210.0" y1="300.0" x2="240.0" y2="300.0"/>
<line x1="240.0" y1="30.0" x2="270.0" y2="30.0"/>
<line x1="270.0" y1="30.0" x2="270.0" y2="60.0"/>
<line x1="270.0" y1="60.0" x2="270.0" y2="90.0"/>
<line x1="240.0" y1="120.0" x2="270.0" y2="120.0"/>
<line x1="240.0" y1="180.0" x2="270.0" y2="180.0"/>
<line x1="270.0" y1="180.0" x2="270.0" y2="210.0"/>
<line x1="270.0" y1="210.0" x2="270.0" y2="240.0"/>
<line x1="240.0" y1="270.0" x2="270.0" y2="270.0"/>
<line x1="270.0" y1="240.0" x2="270.0" y2="270.0"/>
<line x1="240.0" y1="300.0" x2="270.0" y2="300.0"/>
<line x1="300.0" y1="0.0" x2="300.0" y2="30.0"/>
<line x1="300.0" y1="30.0" x2="300.0" y2="60.0"/>
<line x1="270.0" y1="90.0" x2="300.0" y2="90.0"/>
<line x1="300.0" y1="60.0" x2="300.0" y2="90.0"/>
<line x1="300.0" y1="90.0" x2="300.0" y2="120.0"/>
<line x1="270.0" y1="150.0" x2="300.0" y2="150.0"/>
<line x1="300.0" y1="120.0" x2="300.0" y2="150.0"/>
<line x1="300.0" y1="150.0" x2="300.0" y2="180.0"/>
<line x1="300.0" y1="180.0" x2="300.0" y2="210.0"/>
<line x1="300.0" y1="210.0" x2="300.0" y2="240.0"/>
<line x1="300.0" y1="240.0" x2="300.0" y2="270.0"/>
<line x1="270.0" y1="300.0" x2="300.0" y2="300.0"/>
<line x1="300.0" y1="270.0" x2="300.0" y2="300.0"/>
<line x1="0" y1="0" x2="300" y2="0"/>
<line x1="0" y1="0" x2="0" y2="300"/>
</svg>
