<?xml version="1.0" encoding="utf-8"?>
<svg xmlns="http://www.w3.org/2000/svg"
    xmlns:xlink="http://www.w3.org/1999/xlink"
    width="820" height="620" viewBox="-10 -10 820 620">
<defs>
<style type="text/css"><![CDATA[
line {
    stroke: #000000;
    stroke-linecap: square;
    stroke-width: 5;
}
]]></style>
</defs>
<line x1="0.0" y1="40.0" x2="40.0" y2="40.0"/>
<line x1="0.0" y1="80.0" x2="40.0" y2="80.0"/>
<line x1="0.0" y1="120.0" x2="40.0" y2="120.0"/>
<line x1="40.0" y1="120.0" x2="40.0" y2="160.0"/>
<line x1="0.0" y1="200.0" x2="40.0" y2="200.0"/>
<line x1="40.0" y1="200.0" x2="40.0" y2="240.0"/>
<line x1="0.0" y1="320.0" x2="40.0" y2="320.0"/>
<line x1="40.0" y1="280.0" x2="40.0" y2="320.0"/>
<line x1="40.0" y1="360.0" x2="40.0" y2="400.0"/>
<line x1="40.0" y1="400.0" x2="40.0" y2="440.0"/>
<line x1="40.0" y1="440.0" x2="40.0" y2="480.0"/>
<line x1="0.0" y1="520.0" x2="40.0" y2="520.0"/>
<line x1="0.0" y1="600.0" x2="40.0" y2="600.0"/>
<line x1="40.0" y1="560.0" x2="40.0" y2="600.0"/>
<line x1="40.0" y1="80.0" x2="80.0" y2="80.0"/>
<line x1="80.0" y1="120.0" x2="80.0" y2="160.0"/>
<line x1="40.0" y1="280.0" x2="80.0" y2="280.0"/>
<line x1="40.0" y1="320.0" x2="80.0" y2="320.0"/>
<line x1="80.0" y1="320.0" x2="80.0" y2="360.0"/>
<line x1="80.0" y1="360.0" x2="80.0" y2="400.0"/>
<line x1="40.0" y1="440.0" x2="80.0" y2="440.0"/>
<line x1="40.0" y1="520.0" x2="80.0" y2="520.0"/>
<line x1="80.0" y1="480.0" x2="80.0" y2="520.0"/>
<line x1="80.0" y1="520.0" x2="80.0" y2="560.0"/>
<line x1="40.0" y1="600.0" x2="80.0" y2="600.0"/>
<line x1="80.0" y1="40.0" x2="120.0" y2="40.0"/>
<line x1="120.0" y1="0.0" x2="120.0" y2="40.0"/>
<line x1="120.0" y1="40.0" x2="120.0" y2="80.0"/>
<line x1="80.0" y1="120.0" x2="120.0" y2="120.0"/>
<line x1="120.0" y1="80.0" x2="120.0" y2="120.0"/>
<line x1="80.0" y1="200.0" x2="120.0" y2="200.0"/>
<line x1="120.0" y1="160.0" x2="120.0" y2="200.0"/>
<line x1="80.0" y1="240.0" x2="120.0" y2="240.0"/>
<line x1="120.0" y1="200.0" x2="120.0" y2="240.0"/>
<line x1="120.0" y1="280.0" x2="120.0" y2="320.0"/>
<line x1="120.0" y1="360.0" x2="120.0" y2="400.0"/>
<line x1="80.0" y1="440.0" x2="120.0" y2="440.0"/>
<line x1="120.0" y1="400.0" x2="120.0" y2="440.0"/>
<line x1="120.0" y1="440.0" x2="120.0" y2="480.0"/>
<line x1="120.0" y1="480.0" x2="120.0" y2="520.0"/>
<line x1="120.0" y1="520.0" x2="120.0" y2="560.0"/>
<line x1="80.0" y1="600.0" x2="120.0" y2="600.0"/>
<line x1="120.0" y1="560.0" x2="120.0" y2="600.0"/>
<line x1="160.0" y1="40.0" x2="160.0" y2="80.0"/>
<line x1="160.0" y1="80.0" x2="160.0" y2="120.0"/>
<line x1="120.0" y1="160.0" x2="160.0" y2="160.0"/>
<line x1="160.0" y1="160.0" x2="160.0" y2="200.0"/>
<line x1="160.0" y1="240.0" x2="160.0" y2="280.0"/>
<line x1="120.0" y1="320.0" x2="160.0" y2="320.0"/>
<line x1="160.0" y1="280.0" x2="160.0" y2="320.0"/>
<line x1="160.0" y1="320.0" x2="160.0" y2="360.0"/>
<line x1="120.0" y1="400.0" x2="160.0" y2="400.0"/>
<line x1="160.0" y1="360.0" x2="160.0" y2="400.0"/>
<line x1="160.0" y1="400.0" x2="160.0" y2="440.0"/>
<line x1="160.0" y1="440.0" x2="160.0" y2="480.0"/>
<line x1="160.0" y1="520.0" x2="160.0" y2="560.0"/>
<line x1="120.0" y1="600.0" x2="160.0" y2="600.0"/>
<line x1="160.0" y1="560.0" x2="160.0" y2="600.0"/>
<line x1="200.0" y1="0.0" x2="200.0" y2="40.0"/>
<line x1="160.0" y1="80.0" x2="200.0" y2="80.0"/>
<line x1="200.0" y1="80.0" x2="200.0" y2="120.0"/>
<line x1="160.0" y1="160.0" x2="200.0" y2="160.0"/>
<line x1="200.0" y1="120.0" x2="200.0" y2="160.0"/>
<line x1="160.0" y1="200.0" x2="200.0" y2="200.0"/>
<line x1="200.0" y1="200.0" x2="200.0" y2="240.0"/>
<line x1="160.0" y1="320.0" x2="200.0" y2="320.0"/>
<line x1="200.0" y1="280.0" x2="200.0" y2="320.0"/>
<line x1="200.0" y1="400.0" x2="200.0" y2="440.0"/>
<line x1="160.0" y1="480.0" x2="200.0" y2="480.0"/>
<line x1="200.0" y1="440.0" x2="200.0" y2="480.0"/>
<line x1="160.0" y1="520.0" x2="200.0" y2="520.0"/>
<line x1="160.0" y1="560.0" x2="200.0" y2="560.0"/>
<line x1="160.0" y1="600.0" x2="200.0" y2="600.0"/>
<line x1="240.0" y1="40.0" x2="240.0" y2="80.0"/>
<line x1="200.0" y1="160.0" x2="240.0" y2="160.0"/>
<line x1="240.0" y1="120.0" x2="240.0" y2="160.0"/>
<line x1="240.0" y1="200.0" x2="240.0" y2="240.0"/>
<line x1="240.0" y1="240.0" x2="240.0" y2="280.0"/>
<line x1="240.0" y1="280.0" x2="240.0" y2="320.0"/>
<line x1="200.0" y1="360.0" x2="240.0" y2="360.0"/>
<line x1="240.0" y1="320.0" x2="240.0" y2="360.0"/>
<line x1="240.0" y1="360.0" x2="240.0" y2="400.0"/>
<line x1="240.0" y1="400.0" x2="240.0" y2="440.0"/>
<line x1="240.0" y1="440.0" x2="240.0" y2="480.0"/>
<line x1="200.0" y1="520.0" x2="240.0" y2="520.0"/>
<line x1="200.0" y1="560.0" x2="240.0" y2="560.0"/>
<line x1="200.0" y1="600.0" x2="240.0" y2="600.0"/>
<line x1="280.0" y1="0.0" x2="280.0" y2="40.0"/>
<line x1="240.0" y1="80.0" x2="280.0" y2="80.0"/>
<line x1="280.0" y1="40.0" x2="280.0" y2="80.0"/>
<line x1="240.0" y1="120.0" x2="280.0" y2="120.0"/>
<line x1="280.0" y1="80.0" x2="280.0" y2="120.0"/>
<line x1="280.0" y1="160.0" x2="280.0" y2="200.0"/>
<line x1="280.0" y1="200.0" x2="280.0" y2="240.0"/>
<line x1="280.0" y1="280.0" x2="280.0" y2="320.0"/>
<line x1="280.0" y1="320.0" x2="280.0" y2="360.0"/>
<line x1="240.0" y1="400.0" x2="280.0" y2="400.0"/>
<line x1="280.0" y1="360.0" x2="280.0" y2="400.0"/>
<line x1="280.0" y1="400.0" x2="280.0" y2="440.0"/>
<line x1="280.0" y1="520.0" x2="280.0" y2="560.0"/>
<line x1="240.0" y1="600.0" x2="280.0" y2="600.0"/>
<line x1="280.0" y1="560.0" x2="280.0" y2="600.0"/>
<line x1="320.0" y1="0.0" x2="320.0" y2="40.0"/>
<line x1="320.0" y1="40.0" x2="320.0" y2="80.0"/>
<line x1="280.0" y1="120.0" x2="320.0" y2="120.0"/>
<line x1="280.0" y1="160.0" x2="320.0" y2="160.0"/>
<line x1="280.0" y1="240.0" x2="320.0" y2="240.0"/>
<line x1="320.0" y1="200.0" x2="320.0" y2="240.0"/>
<line x1="280.0" y1="280.0" x2="320.0" y2="280.0"/>
<line x1="320.0" y1="280.0" x2="320.0" y2="320.0"/>
<line x1="320.0" y1="320.0" x2="320.0" y2="360.0"/>
<line x1="320.0" y1="360.0" x2="320.0" y2="400.0"/>
<line x1="320.0" y1="400.0" x2="320.0" y2="440.0"/>
<line x1="280.0" y1="480.0" x2="320.0" y2="480.0"/>
<line x1="320.0" y1="480.0" x2="320.0" y2="520.0"/>
<line x1="280.0" y1="560.0" x2="320.0" y2="560.0"/>
<line x1="320.0" y1="520.0" x2="320.0" y2="560.0"/>
<line x1="280.0" y1="600.0" x2="320.0" y2="600.0"/>
<line x1="360.0" y1="40.0" x2="360.0" y2="80.0"/>
<line x1="320.0" y1="160.0" x2="360.0" y2="160.0"/>
<line x1="360.0" y1="120.0" x2="360.0" y2="160.0"/>
<line x1="320.0" y1="200.0" x2="360.0" y2="200.0"/>
<line x1="360.0" y1="200.0" x2="360.0" y2="240.0"/>
<line x1="320.0" y1="280.0" x2="360.0" y2="280.0"/>
<line x1="360.0" y1="240.0" x2="360.0" y2="280.0"/>
<line x1="360.0" y1="320.0" x2="360.0" y2="360.0"/>
<line x1="320.0" y1="400.0" x2="360.0" y2="400.0"/>
<line x1="360.0" y1="400.0" x2="360.0" y2="440.0"/>
<line x1="320.0" y1="480.0" x2="360.0" y2="480.0"/>
<line x1="320.0" y1="520.0" x2="360.0" y2="520.0"/>
<line x1="320.0" y1="560.0" x2="360.0" y2="560.0"/>
<line x1="320.0" y1="600.0" x2="360.0" y2="600.0"/>
<line x1="360.0" y1="40.0" x2="400.0" y2="40.0"/>
<line x1="400.0" y1="0.0" x2="400.0" y2="40.0"/>
<line x1="360.0" y1="120.0" x2="400.0" y2="120.0"/>
<line x1="400.0" y1="80.0" x2="400.0" y2="120.0"/>
<line x1="400.0" y1="120.0" x2="400.0" y2="160.0"/>
<line x1="360.0" y1="200.0" x2="400.0" y2="200.0"/>
<line x1="360.0" y1="280.0" x2="400.0" y2="280.0"/>
<line x1="360.0" y1="360.0" x2="400.0" y2="360.0"/>
<line x1="400.0" y1="360.0" x2="400.0" y2="400.0"/>
<line x1="360.0" y1="480.0" x2="400.0" y2="480.0"/>
<line x1="360.0" y1="520.0" x2="400.0" y2="520.0"/>
<line x1="360.0" y1="560.0" x2="400.0" y2="560.0"/>
<line x1="360.0" y1="600.0" x2="400.0" y2="600.0"/>
<line x1="440.0" y1="0.0" x2="440.0" y2="40.0"/>
<line x1="400.0" y1="120.0" x2="440.0" y2="120.0"/>
<line x1="440.0" y1="80.0" x2="440.0" y2="120.0"/>
<line x1="400.0" y1="160.0" x2="440.0" y2="160.0"/>
<line x1="400.0" y1="240.0" x2="440.0" y2="240.0"/>
<line x1="440.0" y1="200.0" x2="440.0" y2="240.0"/>
<line x1="400.0" y1="280.0" x2="440.0" y2="280.0"/>
<line x1="400.0" y1="320.0" x2="440.0" y2="320.0"/>
<line x1="440.0" y1="280.0" x2="440.0" y2="320.0"/>
<line x1="400.0" y1="360.0" x2="440.0" y2="360.0"/>
<line x1="440.0" y1="400.0" x2="440.0" y2="440.0"/>
<line x1="400.0" y1="480.0" x2="440.0" y2="480.0"/>
<line x1="400.0" y1="600.0" x2="440.0" y2="600.0"/>
<line x1="440.0" y1="40.0" x2="480.0" y2="40.0"/>
<line x1="480.0" y1="40.0" x2="480.0" y2="80.0"/>
<line x1="480.0" y1="120.0" x2="480.0" y2="160.0"/>
<line x1="440.0" y1="240.0" x2="480.0" y2="240.0"/>
<line x1="480.0" y1="200.0" x2="480.0" y2="240.0"/>
<line x1="480.0" y1="240.0" x2="480.0" y2="280.0"/>
<line x1="440.0" y1="320.0" x2="480.0" y2="320.0"/>
<line x1="440.0" y1="360.0" x2="480.0" y2="360.0"/>
<line x1="480.0" y1="360.0" x2="480.0" y2="400.0"/>
<line x1="440.0" y1="440.0" x2="480.0" y2="440.0"/>
<line x1="440.0" y1="480.0" x2="480.0" y2="480.0"/>
<line x1="440.0" y1="520.0" x2="480.0" y2="520.0"/>
<line x1="440.0" y1="560.0" x2="480.0" y2="560.0"/>
<line x1="480.0" y1="520.0" x2="480.0" y2="560.0"/>
<line x1="440.0" y1="600.0" x2="480.0" y2="600.0"/>
<line x1="520.0" y1="0.0" x2="520.0" y2="40.0"/>
<line x1="520.0" y1="80.0" x2="520.0" y2="120.0"/>
<line x1="480.0" y1="160.0" x2="520.0" y2="160.0"/>
<line x1="480.0" y1="200.0" x2="520.0" y2="200.0"/>
<line x1="520.0" y1="160.0" x2="520.0" y2="200.0"/>
<line x1="480.0" y1="240.0" x2="520.0" y2="240.0"/>
<line x1="520.0" y1="240.0" x2="520.0" y2="280.0"/>
<line x1="480.0" y1="320.0" x2="520.0" y2="320.0"/>
<line x1="480.0" y1="360.0" x2="520.0" y2="360.0"/>
<line x1="520.0" y1="320.0" x2="520.0" y2="360.0"/>
<line x1="480.0" y1="400.0" x2="520.0" y2="400.0"/>
<line x1="480.0" y1="440.0" x2="520.0" y2="440.0"/>
<line x1="520.0" y1="400.0" x2="520.0" y2="440.0"/>
<line x1="520.0" y1="440.0" x2="520.0" y2="480.0"/>
<line x1="480.0" y1="520.0" x2="520.0" y2="520.0"/>
<line x1="520.0" y1="480.0" x2="520.0" y2="520.0"/>
<line x1="480.0" y1="560.0" x2="520.0" y2="560.0"/>
<line x1="480.0" y1="600.0" x2="520.0" y2="600.0"/>
<line x1="520.0" y1="560.0" x2="520.0" y2="600.0"/>
<line x1="560.0" y1="0.0" x2="560.0" y2="40.0"/>
<line x1="520.0" y1="80.0" x2="560.0" y2="80.0"/>
<line x1="560.0" y1="40.0" x2="560.0" y2="80.0"/>
<line x1="560.0" y1="80.0" x2="560.0" y2="120.0"/>
<line x1="520.0" y1="160.0" x2="560.0" y2="160.0"/>
<line x1="560.0" y1="120.0" x2="560.0" y2="160.0"/>
<line x1="560.0" y1="200.0" x2="560.0" y2="240.0"/>
<line x1="560.0" y1="320.0" x2="560.0" y2="360.0"/>
<line x1="560.0" y1="360.0" x2="560.0" y2="400.0"/>
<line x1="520.0" y1="440.0" x2="560.0" y2="440.0"/>
<line x1="560.0" y1="400.0" x2="560.0" y2="440.0"/>
<line x1="560.0" y1="440.0" x2="560.0" y2="480.0"/>
<line x1="560.0" y1="520.0" x2="560.0" y2="560.0"/>
<line x1="520.0" y1="600.0" x2="560.0" y2="600.0"/>
<line x1="560.0" y1="560.0" x2="560.0" y2="600.0"/>
<line x1="600.0" y1="0.0" x2="600.0" y2="40.0"/>
<line x1="560.0" y1="80.0" x2="600.0" y2="80.0"/>
<line x1="560.0" y1="120.0" x2="600.0" y2="120.0"/>
<line x1="600.0" y1="120.0" x2="600.0" y2="160.0"/>
<line x1="560.0" y1="200.0" x2="600.0" y2="200.0"/>
<line x1="600.0" y1="160.0" x2="600.0" y2="200.0"/>
<line x1="560.0" y1="280.0" x2="600.0" y2="280.0"/>
<line x1="560.0" y1="400.0" x2="600.0" y2="400.0"/>
<line x1="600.0" y1="360.0" x2="600.0" y2="400.0"/>
<line x1="600.0" y1="440.0" x2="600.0" y2="480.0"/>
<line x1="600.0" y1="480.0" x2="600.0" y2="520.0"/>
<line x1="560.0" y1="560.0" x2="600.0" y2="560.0"/>
<line x1="600.0" y1="520.0" x2="600.0" y2="560.0"/>
<line x1="560.0" y1="600.0" x2="600.0" y2="600.0"/>
<line x1="640.0" y1="0.0" x2="640.0" y2="40.0"/>
<line x1="640.0" y1="40.0" x2="640.0" y2="80.0"/>
<line x1="640.0" y1="80.0" x2="640.0" y2="120.0"/>
<line x1="600.0" y1="160.0" x2="640.0" y2="160.0"/>
<line x1="600.0" y1="200.0" x2="640.0" y2="200.0"/>
<line x1="600.0" y1="240.0" x2="640.0" y2="240.0"/>
<line x1="640.0" y1="200.0" x2="640.0" y2="240.0"/>
<line x1="600.0" y1="280.0" x2="640.0" y2="280.0"/>
<line x1="640.0" y1="240.0" x2="640.0" y2="280.0"/>
<line x1="600.0" y1="320.0" x2="640.0" y2="320.0"/>
<line x1="600.0" y1="360.0" x2="640.0" y2="360.0"/>
<line x1="640.0" y1="360.0" x2="640.0" y2="400.0"/>
<line x1="600.0" y1="440.0" x2="640.0" y2="440.0"/>
<line x1="640.0" y1="480.0" x2="640.0" y2="520.0"/>
<line x1="600.0" y1="600.0" x2="640.0" y2="600.0"/>
<line x1="640.0" y1="560.0" x2="640.0" y2="600.0"/>
<line x1="680.0" y1="40.0" x2="680.0" y2="80.0"/>
<line x1="640.0" y1="120.0" x2="680.0" y2="120.0"/>
<line x1="680.0" y1="120.0" x2="680.0" y2="160.0"/>
<line x1="640.0" y1="240.0" x2="680.0" y2="240.0"/>
<line x1="640.0" y1="280.0" x2="680.0" y2="280.0"/>
<line x1="640.0" y1="320.0" x2="680.0" y2="320.0"/>
<line x1="680.0" y1="320.0" x2="680.0" y2="360.0"/>
<line x1="680.0" y1="360.0" x2="680.0" y2="400.0"/>
<line x1="680.0" y1="400.0" x2="680.0" y2="440.0"/>
<line x1="640.0" y1="520.0" x2="680.0" y2="520.0"/>
<line x1="680.0" y1="480.0" x2="680.0" y2="520.0"/>
<line x1="680.0" y1="520.0" x2="680.0" y2="560.0"/>
<line x1="640.0" y1="600.0" x2="680.0" y2="600.0"/>
<line x1="680.0" y1="40.0" x2="720.0" y2="40.0"/>
<line x1="720.0" y1="80.0" x2="720.0" y2="120.0"/>
<line x1="720.0" y1="120.0" x2="720.0" y2="160.0"/>
<line x1="680.0" y1="200.0" x2="720.0" y2="200.0"/>
<line x1="720.0" y1="240.0" x2="720.0" y2="280.0"/>
<line x1="680.0" y1="360.0" x2="720.0" y2="360.0"/>
<line x1="680.0" y1="400.0" x2="720.0" y2="400.0"/>
<line x1="680.0" y1="440.0" x2="720.0" y2="440.0"/>
<line x1="680.0" y1="480.0" x2="720.0" y2="480.0"/>
<line x1="720.0" y1="440.0" x2="720.0" y2="480.0"/>
<line x1="680.0" y1="560.0" x2="720.0" y2="560.0"/>
<line x1="720.0" y1="520.0" x2="720.0" y2="560.0"/>
<line x1="680.0" y1="600.0" x2="720.0" y2="600.0"/>
<line x1="720.0" y1="40.0" x2="760.0" y2="40.0"/>
<line x1="760.0" y1="0.0" x2="760.0" y2="40.0"/>
<line x1="720.0" y1="80.0" x2="760.0" y2="80.0"/>
<line x1="720.0" y1="120.0" x2="760.0" y2="120.0"/>
<line x1="720.0" y1="160.0" x2="760.0" y2="160.0"/>
<line x1="720.0" y1="200.0" x2="760.0" y2="200.0"/>
<line x1="720.0" y1="240.0" x2="760.0" y2="240.0"/>
<line x1="760.0" y1="200.0" x2="760.0" y2="240.0"/>
<line x1="720.0" y1="320.0" x2="760.0" y2="320.0"/>
<line x1="760.0" y1="280.0" x2="760.0" y2="320.0"/>
<line x1="720.0" y1="360.0" x2="760.0" y2="360.0"/>
<line x1="760.0" y1="320.0" x2="760.0" y2="360.0"/>
<line x1="720.0" y1="480.0" x2="760.0" y2="480.0"/>
<line x1="760.0" y1="440.0" x2="760.0" y2="480.0"/>
<line x1="760.0" y1="520.0" x2="760.0" y2="560.0"/>
<line x1="720.0" y1="600.0" x2="760.0" y2="600.0"/>
<line x1="800.0" y1="0.0" x2="800.0" y2="40.0"/>
<line x1="760.0" y1="80.0" x2="800.0" y2="80.0"/>
<line x1="800.0" y1="40.0" x2="800.0" y2="80.0"/>
<line x1="800.0" y1="80.0" x2="800.0" y2="120.0"/>
<line x1="800.0" y1="120.0" x2="800.0" y2="160.0"/>
<line x1="800.0" y1="160.0" x2="800.0" y2="200.0"/>
<line x1="760.0" y1="240.0" x2="800.0" y2="240.0"/>
<line x1="800.0" y1="200.0" x2="800.0" y2="240.0"/>
<line x1="800.0" y1="240.0" x2="800.0" y2="280.0"/>
<line x1="800.0" y1="280.0" x2="800.0" y2="320.0"/>
<line x1="800.0" y1="320.0" x2="800.0" y2="360.0"/>
<line x1="760.0" y1="400.0" x2="800.0" y2="400.0"/>
<line x1="800.0" y1="360.0" x2="800.0" y2="400.0"/>
<line x1="760.0" y1="440.0" x2="800.0" y2="440.0"/>
<line x1="800.0" y1="400.0" x2="800.0" y2="440.0"/>
<line x1="800.0" y1="440.0" x2="800.0" y2="480.0"/>
<line x1="760.0" y1="520.0" x2="800.0" y2="520.0"/>
<line x1="800.0" y1="480.0" x2="800.0" y2="520.0"/>
<line x1="800.0" y1="520.0" x2="800.0" y2="560.0"/>
<line x1="760.0" y1="600.0" x2="800.0" y2="600.0"/>
<line x1="800.0" y1="560.0" x2="800.0" y2="600.0"/>
<line x1="0" y1="0" x2="800" y2="0"/>
<line x1="0" y1="0" x2="0" y2="600"/>
</svg>
