<?xml version="1.0" encoding="utf-8"?>
<svg xmlns="http://www.w3.org/2000/svg"
    xmlns:xlink="http://www.w3.org/1999/xlink"
    width="320" height="4520" viewBox="-10 -10 320 4520">
<defs>
<style type="text/css"><![CDATA[
line {
    stroke: #000000;
    stroke-linecap: square;
    stroke-width: 5;
}
]]></style>
</defs>
<line x1="30.0" y1="0.0" x2="30.0" y2="30.0"/>
<line x1="0.0" y1="90.0" x2="30.0" y2="90.0"/>
<line x1="30.0" y1="120.0" x2="30.0" y2="150.0"/>
<line x1="30.0" y1="150.0" x2="30.0" y2="180.0"/>
<line x1="0.0" y1="240.0" x2="30.0" y2="240.0"/>
<line x1="0.0" y1="300.0" x2="30.0" y2="300.0"/>
<line x1="0.0" y1="330.0" x2="30.0" y2="330.0"/>
<line x1="30.0" y1="360.0" x2="30.0" y2="390.0"/>
<line x1="30.0" y1="390.0" x2="30.0" y2="420.0"/>
<line x1="30.0" y1="420.0" x2="30.0" y2="450.0"/>
<line x1="30.0" y1="450.0" x2="30.0" y2="480.0"/>
<line x1="30.0" y1="480.0" x2="30.0" y2="510.0"/>
<line x1="30.0" y1="510.0" x2="30.0" y2="540.0"/>
<line x1="30.0" y1="540.0" x2="30.0" y2="570.0"/>
<line x1="30.0" y1="570.0" x2="30.0" y2="600.0"/>
<line x1="0.0" y1="630.0" x2="30.0" y2="630.0"/>
<line x1="30.0" y1="690.0" x2="30.0" y2="720.0"/>
<line x1="30.0" y1="720.0" x2="30.0" y2="750.0"/>
<line x1="30.0" y1="750.0" x2="30.0" y2="780.0"/>
<line x1="0.0" y1="810.0" x2="30.0" y2="810.0"/>
<line x1="30.0" y1="840.0" x2="30.0" y2="870.0"/>
<line x1="0.0" y1="900.0" x2="30.0" y2="900.0"/>
<line x1="30.0" y1="930.0" x2="30.0" y2="960.0"/>
<line x1="30.0" y1="960.0" x2="30.0" y2="990.0"/>
<line x1="30.0" y1="1020.0" x2="30.0" y2="1050.0"/>
<line x1="0.0" y1="1080.0" x2="30.0" y2="1080.0"/>
<line x1="0.0" y1="1110.0" x2="30.0" y2="1110.0"/>
<line x1="30.0" y1="1170.0" x2="30.0" y2="1200.0"/>
<line x1="30.0" y1="1230.0" x2="30.0" y2="1260.0"/>
<line x1="30.0" y1="1260.0" x2="30.0" y2="1290.0"/>
<line x1="30.0" y1="1290.0" x2="30.0" y2="1320.0"/>
<line x1="30.0" y1="1320.0" x2="30.0" y2="1350.0"/>
<line x1="30.0" y1="1350.0" x2="30.0" y2="1380.0"/>
<line x1="0.0" y1="1410.0" x2="30.0" y2="1410.0"/>
<line x1="30.0" y1="1380.0" x2="30.0" y2="1410.0"/>
<line x1="30.0" y1="1440.0" x2="30.0" y2="1470.0"/>
<line x1="30.0" y1="1470.0" x2="30.0" y2="1500.0"/>
<line x1="30.0" y1="1560.0" x2="30.0" y2="1590.0"/>
<line x1="30.0" y1="1590.0" x2="30.0" y2="1620.0"/>
<line x1="30.0" y1="1620.0" x2="30.0" y2="1650.0"/>
<line x1="30.0" y1="1650.0" x2="30.0" y2="1680.0"/>
<line x1="30.0" y1="1680.0" x2="30.0" y2="1710.0"/>
<line x1="0.0" y1="1740.0" x2="30.0" y2="1740.0"/>
<line x1="30.0" y1="1770.0" x2="30.0" y2="1800.0"/>
<line x1="30.0" y1="1830.0" x2="30.0" y2="1860.0"/>
<line x1="30.0" y1="1860.0" x2="30.0" y2="1890.0"/>
<line x1="0.0" y1="1920.0" x2="30.0" y2="1920.0"/>
<line x1="30.0" y1="1950.0" x2="30.0" y2="1980.0"/>
<line x1="0.0" y1="2040.0" x2="30.0" y2="2040.0"/>
<line x1="30.0" y1="2010.0" x2="30.0" y2="2040.0"/>
<line x1="30.0" y1="2070.0" x2="30.0" y2="2100.0"/>
<line x1="30.0" y1="2100.0" x2="30.0" y2="2130.0"/>
<line x1="0.0" y1="2190.0" x2="30.0" y2="2190.0"/>
<line x1="30.0" y1="2220.0" x2="30.0" y2="2250.0"/>
<line x1="30.0" y1="2250.0" x2="30.0" y2="2280.0"/>
<line x1="0.0" y1="2340.0" x2="30.0" y2="2340.0"/>
<line x1="30.0" y1="2310.0" x2="30.0" y2="2340.0"/>
<line x1="30.0" y1="2370.0" x2="30.0" y2="2400.0"/>
<line x1="30.0" y1="2400.0" x2="30.0" y2="2430.0"/>
<line x1="30.0" y1="2430.0" x2="30.0" y2="2460.0"/>
<line x1="30.0" y1="2460.0" x2="30.0" y2="2490.0"/>
<line x1="30.0" y1="2490.0" x2="30.0" y2="2520.0"/>
<line x1="30.0" y1="2520.0" x2="30.0" y2="2550.0"/>
<line x1="30.0" y1="2550.0" x2="30.0" y2="2580.0"/>
<line x1="30.0" y1="2580.0" x2="30.0" y2="2610.0"/>
<line x1="30.0" y1="2640.0" x2="30.0" y2="2670.0"/>
<line x1="30.0" y1="2670.0" x2="30.0" y2="2700.0"/>
<line x1="0.0" y1="2730.0" x2="30.0" y2="2730.0"/>
<line x1="0.0" y1="2790.0" x2="30.0" y2="2790.0"/>
<line x1="30.0" y1="2790.0" x2="30.0" y2="2820.0"/>
<line x1="30.0" y1="2850.0" x2="30.0" y2="2880.0"/>
<line x1="0.0" y1="2910.0" x2="30.0" y2="2910.0"/>
<line x1="30.0" y1="2880.0" x2="30.0" y2="2910.0"/>
<line x1="30.0" y1="2940.0" x2="30.0" y2="2970.0"/>
<line x1="30.0" y1="2970.0" x2="30.0" y2="3000.0"/>
<line x1="30.0" y1="3000.0" x2="30.0" y2="3030.0"/>
<line x1="0.0" y1="3090.0" x2="30.0" y2="3090.0"/>
<line x1="30.0" y1="3060.0" x2="30.0" y2="3090.0"/>
<line x1="30.0" y1="3120.0" x2="30.0" y2="3150.0"/>
<line x1="30.0" y1="3150.0" x2="30.0" y2="3180.0"/>
<line x1="0.0" y1="3240.0" x2="30.0" y2="3240.0"/>
<line x1="30.0" y1="3240.0" x2="30.0" y2="3270.0"/>
<line x1="30.0" y1="3270.0" x2="30.0" y2="3300.0"/>
<line x1="30.0" y1="3330.0" x2="30.0" y2="3360.0"/>
<line x1="30.0" y1="3360.0" x2="30.0" y2="3390.0"/>
<line x1="30.0" y1="3390.0" x2="30.0" y2="3420.0"/>
<line x1="0.0" y1="3450.0" x2="30.0" y2="3450.0"/>
<line x1="0.0" y1="3480.0" x2="30.0" y2="3480.0"/>
<line x1="30.0" y1="3510.0" x2="30.0" y2="3540.0"/>
<line x1="30.0" y1="3540.0" x2="30.0" y2="3570.0"/>
<line x1="0.0" y1="3600.0" x2="30.0" y2="3600.0"/>
<line x1="30.0" y1="3630.0" x2="30.0" y2="3660.0"/>
<line x1="0.0" y1="3690.0" x2="30.0" y2="3690.0"/>
<line x1="30.0" y1="3660.0" x2="30.0" y2="3690.0"/>
<line x1="0.0" y1="3720.0" x2="30.0" y2="3720.0"/>
<line x1="30.0" y1="3720.0" x2="30.0" y2="3750.0"/>
<line x1="30.0" y1="3750.0" x2="30.0" y2="3780.0"/>
<line x1="0.0" y1="3870.0" x2="30.0" y2="3870.0"/>
<line x1="30.0" y1="3900.0" x2="30.0" y2="3930.0"/>
<line x1="30.0" y1="3960.0" x2="30.0" y2="3990.0"/>
<line x1="30.0" y1="4020.0" x2="30.0" y2="4050.0"/>
<line x1="0.0" y1="4080.0" x2="30.0" y2="4080.0"/>
<line x1="30.0" y1="4050.0" x2="30.0" y2="4080.0"/>
<line x1="0.0" y1="4110.0" x2="30.0" y2="4110.0"/>
<line x1="30.0" y1="4140.0" x2="30.0" y2="4170.0"/>
<line x1="30.0" y1="4200.0" x2="30.0" y2="4230.0"/>
<line x1="30.0" y1="4230.0" x2="30.0" y2="4260.0"/>
<line x1="30.0" y1="4260.0" x2="30.0" y2="4290.0"/>
<line x1="30.0" y1="4290.0" x2="30.0" y2="4320.0"/>
<line x1="0.0" y1="4350.0" x2="30.0" y2="4350.0"/>
<line x1="30.0" y1="4350.0" x2="30.0" y2="4380.0"/>
<line x1="30.0" y1="4380.0" x2="30.0" y2="4410.0"/>
<line x1="0.0" y1="4470.0" x2="30.0" y2="4470.0"/>
<line x1="0.0" y1="4500.0" x2="30.0" y2="4500.0"/>
<line x1="30.0" y1="60.0" x2="60.0" y2="60.0"/>
<line x1="60.0" y1="30.0" x2="60.0" y2="60.0"/>
<line x1="30.0" y1="90.0" x2="60.0" y2="90.0"/>
<line x1="30.0" y1="120.0" x2="60.0" y2="120.0"/>
<line x1="60.0" y1="150.0" x2="60.0" y2="180.0"/>
<line x1="30.0" y1="210.0" x2="60.0" y2="210.0"/>
<line x1="60.0" y1="180.0" x2="60.0" y2="210.0"/>
<line x1="60.0" y1="210.0" x2="60.0" y2="240.0"/>
<line x1="30.0" y1="270.0" x2="60.0" y2="270.0"/>
<line x1="60.0" y1="240.0" x2="60.0" y2="270.0"/>
<line x1="30.0" y1="300.0" x2="60.0" y2="300.0"/>
<line x1="30.0" y1="330.0" x2="60.0" y2="330.0"/>
<line x1="30.0" y1="360.0" x2="60.0" y2="360.0"/>
<line x1="30.0" y1="420.0" x2="60.0" y2="420.0"/>
<line x1="30.0" y1="480.0" x2="60.0" y2="480.0"/>
<line x1="60.0" y1="450.0" x2="60.0" y2="480.0"/>
<line x1="60.0" y1="510.0" x2="60.0" y2="540.0"/>
<line x1="60.0" y1="540.0" x2="60.0" y2="570.0"/>
<line x1="30.0" y1="600.0" x2="60.0" y2="600.0"/>
<line x1="30.0" y1="630.0" x2="60.0" y2="630.0"/>
<line x1="30.0" y1="660.0" x2="60.0" y2="660.0"/>
<line x1="60.0" y1="660.0" x2="60.0" y2="690.0"/>
<line x1="60.0" y1="690.0" x2="60.0" y2="720.0"/>
<line x1="30.0" y1="750.0" x2="60.0" y2="750.0"/>
<line x1="60.0" y1="750.0" x2="60.0" y2="780.0"/>
<line x1="30.0" y1="810.0" x2="60.0" y2="810.0"/>
<line x1="60.0" y1="780.0" x2="60.0" y2="810.0"/>
<line x1="30.0" y1="840.0" x2="60.0" y2="840.0"/>
<line x1="30.0" y1="900.0" x2="60.0" y2="900.0"/>
<line x1="30.0" y1="930.0" x2="60.0" y2="930.0"/>
<line x1="30.0" y1="960.0" x2="60.0" y2="960.0"/>
<line x1="30.0" y1="1020.0" x2="60.0" y2="1020.0"/>
<line x1="60.0" y1="990.0" x2="60.0" y2="1020.0"/>
<line x1="60.0" y1="1020.0" x2="60.0" y2="1050.0"/>
<line x1="60.0" y1="1050.0" x2="60.0" y2="1080.0"/>
<line x1="30.0" y1="1110.0" x2="60.0" y2="1110.0"/>
<line x1="30.0" y1="1140.0" x2="60.0" y2="1140.0"/>
<line x1="60.0" y1="1140.0" x2="60.0" y2="1170.0"/>
<line x1="30.0" y1="1200.0" x2="60.0" y2="1200.0"/>
<line x1="30.0" y1="1230.0" x2="60.0" y2="1230.0"/>
<line x1="60.0" y1="1200.0" x2="60.0" y2="1230.0"/>
<line x1="60.0" y1="1260.0" x2="60.0" y2="1290.0"/>
<line x1="30.0" y1="1320.0" x2="60.0" y2="1320.0"/>
<line x1="60.0" y1="1350.0" x2="60.0" y2="1380.0"/>
<line x1="60.0" y1="1380.0" x2="60.0" y2="1410.0"/>
<line x1="30.0" y1="1440.0" x2="60.0" y2="1440.0"/>
<line x1="60.0" y1="1410.0" x2="60.0" y2="1440.0"/>
<line x1="30.0" y1="1470.0" x2="60.0" y2="1470.0"/>
<line x1="30.0" y1="1530.0" x2="60.0" y2="1530.0"/>
<line x1="60.0" y1="1500.0" x2="60.0" y2="1530.0"/>
<line x1="30.0" y1="1560.0" x2="60.0" y2="1560.0"/>
<line x1="60.0" y1="1530.0" x2="60.0" y2="1560.0"/>
<line x1="60.0" y1="1590.0" x2="60.0" y2="1620.0"/>
<line x1="30.0" y1="1650.0" x2="60.0" y2="1650.0"/>
<line x1="30.0" y1="1710.0" x2="60.0" y2="1710.0"/>
<line x1="30.0" y1="1740.0" x2="60.0" y2="1740.0"/>
<line x1="60.0" y1="1710.0" x2="60.0" y2="1740.0"/>
<line x1="30.0" y1="1800.0" x2="60.0" y2="1800.0"/>
<line x1="60.0" y1="1770.0" x2="60.0" y2="1800.0"/>
<line x1="30.0" y1="1830.0" x2="60.0" y2="1830.0"/>
<line x1="60.0" y1="1830.0" x2="60.0" y2="1860.0"/>
<line x1="60.0" y1="1860.0" x2="60.0" y2="1890.0"/>
<line x1="30.0" y1="1920.0" x2="60.0" y2="1920.0"/>
<line x1="60.0" y1="1890.0" x2="60.0" y2="1920.0"/>
<line x1="60.0" y1="1920.0" x2="60.0" y2="1950.0"/>
<line x1="30.0" y1="1980.0" x2="60.0" y2="1980.0"/>
<line x1="60.0" y1="1980.0" x2="60.0" y2="2010.0"/>
<line x1="60.0" y1="2010.0" x2="60.0" y2="2040.0"/>
<line x1="30.0" y1="2070.0" x2="60.0" y2="2070.0"/>
<line x1="60.0" y1="2040.0" x2="60.0" y2="2070.0"/>
<line x1="60.0" y1="2070.0" x2="60.0" y2="2100.0"/>
<line x1="30.0" y1="2130.0" x2="60.0" y2="2130.0"/>
<line x1="30.0" y1="2160.0" x2="60.0" y2="2160.0"/>
<line x1="30.0" y1="2190.0" x2="60.0" y2="2190.0"/>
<line x1="30.0" y1="2220.0" x2="60.0" y2="2220.0"/>
<line x1="60.0" y1="2190.0" x2="60.0" y2="2220.0"/>
<line x1="30.0" y1="2280.0" x2="60.0" y2="2280.0"/>
<line x1="60.0" y1="2280.0" x2="60.0" y2="2310.0"/>
<line x1="30.0" y1="2340.0" x2="60.0" y2="2340.0"/>
<line x1="30.0" y1="2370.0" x2="60.0" y2="2370.0"/>
<line x1="60.0" y1="2400.0" x2="60.0" y2="2430.0"/>
<line x1="60.0" y1="2430.0" x2="60.0" y2="2460.0"/>
<line x1="60.0" y1="2460.0" x2="60.0" y2="2490.0"/>
<line x1="30.0" y1="2550.0" x2="60.0" y2="2550.0"/>
<line x1="60.0" y1="2520.0" x2="60.0" y2="2550.0"/>
<line x1="30.0" y1="2610.0" x2="60.0" y2="2610.0"/>
<line x1="60.0" y1="2610.0" x2="60.0" y2="2640.0"/>
<line x1="60.0" y1="2640.0" x2="60.0" y2="2670.0"/>
<line x1="30.0" y1="2700.0" x2="60.0" y2="2700.0"/>
<line x1="30.0" y1="2730.0" x2="60.0" y2="2730.0"/>
<line x1="30.0" y1="2760.0" x2="60.0" y2="2760.0"/>
<line x1="60.0" y1="2760.0" x2="60.0" y2="2790.0"/>
<line x1="60.0" y1="2790.0" x2="60.0" y2="2820.0"/>
<line x1="30.0" y1="2850.0" x2="60.0" y2="2850.0"/>
<line x1="60.0" y1="2820.0" x2="60.0" y2="2850.0"/>
<line x1="30.0" y1="2910.0" x2="60.0" y2="2910.0"/>
<line x1="30.0" y1="2940.0" x2="60.0" y2="2940.0"/>
<line x1="30.0" y1="3030.0" x2="60.0" y2="3030.0"/>
<line x1="60.0" y1="3030.0" x2="60.0" y2="3060.0"/>
<line x1="30.0" y1="3090.0" x2="60.0" y2="3090.0"/>
<line x1="30.0" y1="3120.0" x2="60.0" y2="3120.0"/>
<line x1="30.0" y1="3180.0" x2="60.0" y2="3180.0"/>
<line x1="30.0" y1="3210.0" x2="60.0" y2="3210.0"/>
<line x1="30.0" y1="3240.0" x2="60.0" y2="3240.0"/>
<line x1="60.0" y1="3270.0" x2="60.0" y2="3300.0"/>
<line x1="30.0" y1="3330.0" x2="60.0" y2="3330.0"/>
<line x1="60.0" y1="3300.0" x2="60.0" y2="3330.0"/>
<line x1="30.0" y1="3390.0" x2="60.0" y2="3390.0"/>
<line x1="60.0" y1="3360.0" x2="60.0" y2="3390.0"/>
<line x1="30.0" y1="3450.0" x2="60.0" y2="3450.0"/>
<line x1="60.0" y1="3420.0" x2="60.0" y2="3450.0"/>
<line x1="30.0" y1="3480.0" x2="60.0" y2="3480.0"/>
<line x1="30.0" y1="3510.0" x2="60.0" y2="3510.0"/>
<line x1="60.0" y1="3510.0" x2="60.0" y2="3540.0"/>
<line x1="30.0" y1="3600.0" x2="60.0" y2="3600.0"/>
<line x1="30.0" y1="3630.0" x2="60.0" y2="3630.0"/>
<line x1="30.0" y1="3660.0" x2="60.0" y2="3660.0"/>
<line x1="60.0" y1="3690.0" x2="60.0" y2="3720.0"/>
<line x1="30.0" y1="3750.0" x2="60.0" y2="3750.0"/>
<line x1="60.0" y1="3720.0" x2="60.0" y2="3750.0"/>
<line x1="30.0" y1="3780.0" x2="60.0" y2="3780.0"/>
<line x1="30.0" y1="3810.0" x2="60.0" y2="3810.0"/>
<line x1="60.0" y1="3780.0" x2="60.0" y2="3810.0"/>
<line x1="30.0" y1="3840.0" x2="60.0" y2="3840.0"/>
<line x1="60.0" y1="3840.0" x2="60.0" y2="3870.0"/>
<line x1="30.0" y1="3900.0" x2="60.0" y2="3900.0"/>
<line x1="60.0" y1="3870.0" x2="60.0" y2="3900.0"/>
<line x1="60.0" y1="3900.0" x2="60.0" y2="3930.0"/>
<line x1="30.0" y1="3960.0" x2="60.0" y2="3960.0"/>
<line x1="60.0" y1="3930.0" x2="60.0" y2="3960.0"/>
<line x1="60.0" y1="3960.0" x2="60.0" y2="3990.0"/>
<line x1="60.0" y1="4020.0" x2="60.0" y2="4050.0"/>
<line x1="60.0" y1="4050.0" x2="60.0" y2="4080.0"/>
<line x1="30.0" y1="4110.0" x2="60.0" y2="4110.0"/>
<line x1="30.0" y1="4140.0" x2="60.0" y2="4140.0"/>
<line x1="30.0" y1="4200.0" x2="60.0" y2="4200.0"/>
<line x1="60.0" y1="4170.0" x2="60.0" y2="4200.0"/>
<line x1="60.0" y1="4200.0" x2="60.0" y2="4230.0"/>
<line x1="30.0" y1="4290.0" x2="60.0" y2="4290.0"/>
<line x1="30.0" y1="4350.0" x2="60.0" y2="4350.0"/>
<line x1="60.0" y1="4320.0" x2="60.0" y2="4350.0"/>
<line x1="60.0" y1="4380.0" x2="60.0" y2="4410.0"/>
<line x1="30.0" y1="4440.0" x2="60.0" y2="4440.0"/>
<line x1="60.0" y1="4410.0" x2="60.0" y2="4440.0"/>
<line x1="30.0" y1="4470.0" x2="60.0" y2="4470.0"/>
<line x1="30.0" y1="4500.0" x2="60.0" y2="4500.0"/>
<line x1="60.0" y1="30.0" x2="90.0" y2="30.0"/>
<line x1="60.0" y1="90.0" x2="90.0" y2="90.0"/>
<line x1="90.0" y1="60.0" x2="90.0" y2="90.0"/>
<line x1="60.0" y1="120.0" x2="90.0" y2="120.0"/>
<line x1="90.0" y1="120.0" x2="90.0" y2="150.0"/>
<line x1="60.0" y1="180.0" x2="90.0" y2="180.0"/>
<line x1="60.0" y1="240.0" x2="90.0" y2="240.0"/>
<line x1="60.0" y1="300.0" x2="90.0" y2="300.0"/>
<line x1="90.0" y1="270.0" x2="90.0" y2="300.0"/>
<line x1="60.0" y1="330.0" x2="90.0" y2="330.0"/>
<line x1="90.0" y1="330.0" x2="90.0" y2="360.0"/>
<line x1="60.0" y1="390.0" x2="90.0" y2="390.0"/>
<line x1="90.0" y1="390.0" x2="90.0" y2="420.0"/>
<line x1="60.0" y1="450.0" x2="90.0" y2="450.0"/>
<line x1="90.0" y1="420.0" x2="90.0" y2="450.0"/>
<line x1="60.0" y1="510.0" x2="90.0" y2="510.0"/>
<line x1="90.0" y1="480.0" x2="90.0" y2="510.0"/>
<line x1="90.0" y1="510.0" x2="90.0" y2="540.0"/>
<line x1="60.0" y1="570.0" x2="90.0" y2="570.0"/>
<line x1="90.0" y1="570.0" x2="90.0" y2="600.0"/>
<line x1="60.0" y1="630.0" x2="90.0" y2="630.0"/>
<line x1="90.0" y1="630.0" x2="90.0" y2="660.0"/>
<line x1="60.0" y1="690.0" x2="90.0" y2="690.0"/>
<line x1="60.0" y1="720.0" x2="90.0" y2="720.0"/>
<line x1="60.0" y1="750.0" x2="90.0" y2="750.0"/>
<line x1="90.0" y1="780.0" x2="90.0" y2="810.0"/>
<line x1="60.0" y1="840.0" x2="90.0" y2="840.0"/>
<line x1="90.0" y1="810.0" x2="90.0" y2="840.0"/>
<line x1="60.0" y1="870.0" x2="90.0" y2="870.0"/>
<line x1="60.0" y1="900.0" x2="90.0" y2="900.0"/>
<line x1="90.0" y1="900.0" x2="90.0" y2="930.0"/>
<line x1="60.0" y1="960.0" x2="90.0" y2="960.0"/>
<line x1="90.0" y1="960.0" x2="90.0" y2="990.0"/>
<line x1="90.0" y1="990.0" x2="90.0" y2="1020.0"/>
<line x1="60.0" y1="1050.0" x2="90.0" y2="1050.0"/>
<line x1="60.0" y1="1110.0" x2="90.0" y2="1110.0"/>
<line x1="90.0" y1="1080.0" x2="90.0" y2="1110.0"/>
<line x1="90.0" y1="1110.0" x2="90.0" y2="1140.0"/>
<line x1="60.0" y1="1170.0" x2="90.0" y2="1170.0"/>
<line x1="90.0" y1="1170.0" x2="90.0" y2="1200.0"/>
<line x1="60.0" y1="1230.0" x2="90.0" y2="1230.0"/>
<line x1="60.0" y1="1260.0" x2="90.0" y2="1260.0"/>
<line x1="60.0" y1="1290.0" x2="90.0" y2="1290.0"/>
<line x1="60.0" y1="1320.0" x2="90.0" y2="1320.0"/>
<line x1="90.0" y1="1320.0" x2="90.0" y2="1350.0"/>
<line x1="90.0" y1="1350.0" x2="90.0" y2="1380.0"/>
<line x1="90.0" y1="1380.0" x2="90.0" y2="1410.0"/>
<line x1="90.0" y1="1410.0" x2="90.0" y2="1440.0"/>
<line x1="60.0" y1="1470.0" x2="90.0" y2="1470.0"/>
<line x1="90.0" y1="1470.0" x2="90.0" y2="1500.0"/>
<line x1="90.0" y1="1500.0" x2="90.0" y2="1530.0"/>
<line x1="90.0" y1="1530.0" x2="90.0" y2="1560.0"/>
<line x1="60.0" y1="1590.0" x2="90.0" y2="1590.0"/>
<line x1="90.0" y1="1560.0" x2="90.0" y2="1590.0"/>
<line x1="60.0" y1="1620.0" x2="90.0" y2="1620.0"/>
<line x1="90.0" y1="1620.0" x2="90.0" y2="1650.0"/>
<line x1="60.0" y1="1680.0" x2="90.0" y2="1680.0"/>
<line x1="90.0" y1="1650.0" x2="90.0" y2="1680.0"/>
<line x1="90.0" y1="1680.0" x2="90.0" y2="1710.0"/>
<line x1="90.0" y1="1710.0" x2="90.0" y2="1740.0"/>
<line x1="60.0" y1="1770.0" x2="90.0" y2="1770.0"/>
<line x1="90.0" y1="1740.0" x2="90.0" y2="1770.0"/>
<line x1="60.0" y1="1830.0" x2="90.0" y2="1830.0"/>
<line x1="90.0" y1="1800.0" x2="90.0" y2="1830.0"/>
<line x1="60.0" y1="1890.0" x2="90.0" y2="1890.0"/>
<line x1="90.0" y1="1920.0" x2="90.0" y2="1950.0"/>
<line x1="60.0" y1="1980.0" x2="90.0" y2="1980.0"/>
<line x1="90.0" y1="1950.0" x2="90.0" y2="1980.0"/>
<line x1="90.0" y1="2010.0" x2="90.0" y2="2040.0"/>
<line x1="90.0" y1="2070.0" x2="90.0" y2="2100.0"/>
<line x1="60.0" y1="2130.0" x2="90.0" y2="2130.0"/>
<line x1="90.0" y1="2100.0" x2="90.0" y2="2130.0"/>
<line x1="60.0" y1="2160.0" x2="90.0" y2="2160.0"/>
<line x1="60.0" y1="2190.0" x2="90.0" y2="2190.0"/>
<line x1="60.0" y1="2250.0" x2="90.0" y2="2250.0"/>
<line x1="90.0" y1="2220.0" x2="90.0" y2="2250.0"/>
<line x1="90.0" y1="2250.0" x2="90.0" y2="2280.0"/>
<line x1="60.0" y1="2340.0" x2="90.0" y2="2340.0"/>
<line x1="90.0" y1="2310.0" x2="90.0" y2="2340.0"/>
<line x1="60.0" y1="2370.0" x2="90.0" y2="2370.0"/>
<line x1="60.0" y1="2400.0" x2="90.0" y2="2400.0"/>
<line x1="90.0" y1="2400.0" x2="90.0" y2="2430.0"/>
<line x1="60.0" y1="2490.0" x2="90.0" y2="2490.0"/>
<line x1="90.0" y1="2490.0" x2="90.0" y2="2520.0"/>
<line x1="90.0" y1="2520.0" x2="90.0" y2="2550.0"/>
<line x1="60.0" y1="2580.0" x2="90.0" y2="2580.0"/>
<line x1="90.0" y1="2550.0" x2="90.0" y2="2580.0"/>
<line x1="90.0" y1="2580.0" x2="90.0" y2="2610.0"/>
<line x1="60.0" y1="2670.0" x2="90.0" y2="2670.0"/>
<line x1="90.0" y1="2640.0" x2="90.0" y2="2670.0"/>
<line x1="60.0" y1="2700.0" x2="90.0" y2="2700.0"/>
<line x1="90.0" y1="2700.0" x2="90.0" y2="2730.0"/>
<line x1="60.0" y1="2760.0" x2="90.0" y2="2760.0"/>
<line x1="90.0" y1="2730.0" x2="90.0" y2="2760.0"/>
<line x1="90.0" y1="2790.0" x2="90.0" y2="2820.0"/>
<line x1="90.0" y1="2820.0" x2="90.0" y2="2850.0"/>
<line x1="60.0" y1="2880.0" x2="90.0" y2="2880.0"/>
<line x1="90.0" y1="2850.0" x2="90.0" y2="2880.0"/>
<line x1="90.0" y1="2880.0" x2="90.0" y2="2910.0"/>
<line x1="60.0" y1="2940.0" x2="90.0" y2="2940.0"/>
<line x1="90.0" y1="2910.0" x2="90.0" y2="2940.0"/>
<line x1="60.0" y1="2970.0" x2="90.0" y2="2970.0"/>
<line x1="90.0" y1="2940.0" x2="90.0" y2="2970.0"/>
<line x1="60.0" y1="3000.0" x2="90.0" y2="3000.0"/>
<line x1="60.0" y1="3030.0" x2="90.0" y2="3030.0"/>
<line x1="90.0" y1="3030.0" x2="90.0" y2="3060.0"/>
<line x1="60.0" y1="3090.0" x2="90.0" y2="3090.0"/>
<line x1="90.0" y1="3060.0" x2="90.0" y2="3090.0"/>
<line x1="90.0" y1="3090.0" x2="90.0" y2="3120.0"/>
<line x1="60.0" y1="3150.0" x2="90.0" y2="3150.0"/>
<line x1="90.0" y1="3120.0" x2="90.0" y2="3150.0"/>
<line x1="60.0" y1="3180.0" x2="90.0" y2="3180.0"/>
<line x1="90.0" y1="3150.0" x2="90.0" y2="3180.0"/>
<line x1="60.0" y1="3210.0" x2="90.0" y2="3210.0"/>
<line x1="60.0" y1="3240.0" x2="90.0" y2="3240.0"/>
<line x1="60.0" y1="3270.0" x2="90.0" y2="3270.0"/>
<line x1="60.0" y1="3330.0" x2="90.0" y2="3330.0"/>
<line x1="90.0" y1="3330.0" x2="90.0" y2="3360.0"/>
<line x1="90.0" y1="3390.0" x2="90.0" y2="3420.0"/>
<line x1="90.0" y1="3420.0" x2="90.0" y2="3450.0"/>
<line x1="60.0" y1="3480.0" x2="90.0" y2="3480.0"/>
<line x1="90.0" y1="3450.0" x2="90.0" y2="3480.0"/>
<line x1="90.0" y1="3480.0" x2="90.0" y2="3510.0"/>
<line x1="60.0" y1="3540.0" x2="90.0" y2="3540.0"/>
<line x1="60.0" y1="3570.0" x2="90.0" y2="3570.0"/>
<line x1="90.0" y1="3540.0" x2="90.0" y2="3570.0"/>
<line x1="60.0" y1="3630.0" x2="90.0" y2="3630.0"/>
<line x1="90.0" y1="3600.0" x2="90.0" y2="3630.0"/>
<line x1="60.0" y1="3660.0" x2="90.0" y2="3660.0"/>
<line x1="60.0" y1="3690.0" x2="90.0" y2="3690.0"/>
<line x1="60.0" y1="3720.0" x2="90.0" y2="3720.0"/>
<line x1="90.0" y1="3750.0" x2="90.0" y2="3780.0"/>
<line x1="90.0" y1="3780.0" x2="90.0" y2="3810.0"/>
<line x1="60.0" y1="3840.0" x2="90.0" y2="3840.0"/>
<line x1="90.0" y1="3810.0" x2="90.0" y2="3840.0"/>
<line x1="90.0" y1="3840.0" x2="90.0" y2="3870.0"/>
<line x1="90.0" y1="3900.0" x2="90.0" y2="3930.0"/>
<line x1="60.0" y1="3960.0" x2="90.0" y2="3960.0"/>
<line x1="90.0" y1="3960.0" x2="90.0" y2="3990.0"/>
<line x1="60.0" y1="4020.0" x2="90.0" y2="4020.0"/>
<line x1="60.0" y1="4080.0" x2="90.0" y2="4080.0"/>
<line x1="60.0" y1="4140.0" x2="90.0" y2="4140.0"/>
<line x1="90.0" y1="4110.0" x2="90.0" y2="4140.0"/>
<line x1="90.0" y1="4140.0" x2="90.0" y2="4170.0"/>
<line x1="90.0" y1="4170.0" x2="90.0" y2="4200.0"/>
<line x1="60.0" y1="4230.0" x2="90.0" y2="4230.0"/>
<line x1="60.0" y1="4260.0" x2="90.0" y2="4260.0"/>
<line x1="90.0" y1="4230.0" x2="90.0" y2="4260.0"/>
<line x1="60.0" y1="4290.0" x2="90.0" y2="4290.0"/>
<line x1="60.0" y1="4320.0" x2="90.0" y2="4320.0"/>
<line x1="90.0" y1="4320.0" x2="90.0" y2="4350.0"/>
<line x1="90.0" y1="4350.0" x2="90.0" y2="4380.0"/>
<line x1="60.0" y1="4410.0" x2="90.0" y2="4410.0"/>
<line x1="60.0" y1="4440.0" x2="90.0" y2="4440.0"/>
<line x1="60.0" y1="4470.0" x2="90.0" y2="4470.0"/>
<line x1="60.0" y1="4500.0" x2="90.0" y2="4500.0"/>
<line x1="90.0" y1="30.0" x2="120.0" y2="30.0"/>
<line x1="120.0" y1="30.0" x2="120.0" y2="60.0"/>
<line x1="90.0" y1="90.0" x2="120.0" y2="90.0"/>
<line x1="120.0" y1="60.0" x2="120.0" y2="90.0"/>
<line x1="120.0" y1="90.0" x2="120.0" y2="120.0"/>
<line x1="90.0" y1="150.0" x2="120.0" y2="150.0"/>
<line x1="90.0" y1="180.0" x2="120.0" y2="180.0"/>
<line x1="90.0" y1="210.0" x2="120.0" y2="210.0"/>
<line x1="120.0" y1="180.0" x2="120.0" y2="210.0"/>
<line x1="90.0" y1="240.0" x2="120.0" y2="240.0"/>
<line x1="120.0" y1="240.0" x2="120.0" y2="270.0"/>
<line x1="120.0" y1="270.0" x2="120.0" y2="300.0"/>
<line x1="90.0" y1="330.0" x2="120.0" y2="330.0"/>
<line x1="90.0" y1="360.0" x2="120.0" y2="360.0"/>
<line x1="90.0" y1="390.0" x2="120.0" y2="390.0"/>
<line x1="90.0" y1="450.0" x2="120.0" y2="450.0"/>
<line x1="120.0" y1="450.0" x2="120.0" y2="480.0"/>
<line x1="120.0" y1="480.0" x2="120.0" y2="510.0"/>
<line x1="90.0" y1="540.0" x2="120.0" y2="540.0"/>
<line x1="120.0" y1="540.0" x2="120.0" y2="570.0"/>
<line x1="120.0" y1="600.0" x2="120.0" y2="630.0"/>
<line x1="90.0" y1="660.0" x2="120.0" y2="660.0"/>
<line x1="120.0" y1="630.0" x2="120.0" y2="660.0"/>
<line x1="90.0" y1="690.0" x2="120.0" y2="690.0"/>
<line x1="90.0" y1="720.0" x2="120.0" y2="720.0"/>
<line x1="120.0" y1="720.0" x2="120.0" y2="750.0"/>
<line x1="120.0" y1="750.0" x2="120.0" y2="780.0"/>
<line x1="120.0" y1="780.0" x2="120.0" y2="810.0"/>
<line x1="90.0" y1="840.0" x2="120.0" y2="840.0"/>
<line x1="90.0" y1="870.0" x2="120.0" y2="870.0"/>
<line x1="120.0" y1="870.0" x2="120.0" y2="900.0"/>
<line x1="90.0" y1="930.0" x2="120.0" y2="930.0"/>
<line x1="120.0" y1="900.0" x2="120.0" y2="930.0"/>
<line x1="90.0" y1="960.0" x2="120.0" y2="960.0"/>
<line x1="90.0" y1="1020.0" x2="120.0" y2="1020.0"/>
<line x1="120.0" y1="990.0" x2="120.0" y2="1020.0"/>
<line x1="90.0" y1="1050.0" x2="120.0" y2="1050.0"/>
<line x1="120.0" y1="1080.0" x2="120.0" y2="1110.0"/>
<line x1="90.0" y1="1140.0" x2="120.0" y2="1140.0"/>
<line x1="120.0" y1="1110.0" x2="120.0" y2="1140.0"/>
<line x1="120.0" y1="1140.0" x2="120.0" y2="1170.0"/>
<line x1="90.0" y1="1200.0" x2="120.0" y2="1200.0"/>
<line x1="120.0" y1="1200.0" x2="120.0" y2="1230.0"/>
<line x1="90.0" y1="1260.0" x2="120.0" y2="1260.0"/>
<line x1="120.0" y1="1230.0" x2="120.0" y2="1260.0"/>
<line x1="90.0" y1="1290.0" x2="120.0" y2="1290.0"/>
<line x1="120.0" y1="1290.0" x2="120.0" y2="1320.0"/>
<line x1="120.0" y1="1320.0" x2="120.0" y2="1350.0"/>
<line x1="120.0" y1="1350.0" x2="120.0" y2="1380.0"/>
<line x1="90.0" y1="1440.0" x2="120.0" y2="1440.0"/>
<line x1="90.0" y1="1470.0" x2="120.0" y2="1470.0"/>
<line x1="120.0" y1="1470.0" x2="120.0" y2="1500.0"/>
<line x1="90.0" y1="1530.0" x2="120.0" y2="1530.0"/>
<line x1="120.0" y1="1560.0" x2="120.0" y2="1590.0"/>
<line x1="120.0" y1="1590.0" x2="120.0" y2="1620.0"/>
<line x1="120.0" y1="1650.0" x2="120.0" y2="1680.0"/>
<line x1="120.0" y1="1680.0" x2="120.0" y2="1710.0"/>
<line x1="120.0" y1="1710.0" x2="120.0" y2="1740.0"/>
<line x1="90.0" y1="1770.0" x2="120.0" y2="1770.0"/>
<line x1="120.0" y1="1740.0" x2="120.0" y2="1770.0"/>
<line x1="120.0" y1="1770.0" x2="120.0" y2="1800.0"/>
<line x1="120.0" y1="1800.0" x2="120.0" y2="1830.0"/>
<line x1="90.0" y1="1860.0" x2="120.0" y2="1860.0"/>
<line x1="120.0" y1="1830.0" x2="120.0" y2="1860.0"/>
<line x1="120.0" y1="1860.0" x2="120.0" y2="1890.0"/>
<line x1="90.0" y1="1920.0" x2="120.0" y2="1920.0"/>
<line x1="120.0" y1="1890.0" x2="120.0" y2="1920.0"/>
<line x1="120.0" y1="1920.0" x2="120.0" y2="1950.0"/>
<line x1="90.0" y1="2010.0" x2="120.0" y2="2010.0"/>
<line x1="120.0" y1="1980.0" x2="120.0" y2="2010.0"/>
<line x1="120.0" y1="2010.0" x2="120.0" y2="2040.0"/>
<line x1="90.0" y1="2070.0" x2="120.0" y2="2070.0"/>
<line x1="120.0" y1="2040.0" x2="120.0" y2="2070.0"/>
<line x1="90.0" y1="2130.0" x2="120.0" y2="2130.0"/>
<line x1="90.0" y1="2160.0" x2="120.0" y2="2160.0"/>
<line x1="120.0" y1="2160.0" x2="120.0" y2="2190.0"/>
<line x1="90.0" y1="2220.0" x2="120.0" y2="2220.0"/>
<line x1="120.0" y1="2190.0" x2="120.0" y2="2220.0"/>
<line x1="90.0" y1="2250.0" x2="120.0" y2="2250.0"/>
<line x1="90.0" y1="2310.0" x2="120.0" y2="2310.0"/>
<line x1="120.0" y1="2280.0" x2="120.0" y2="2310.0"/>
<line x1="90.0" y1="2370.0" x2="120.0" y2="2370.0"/>
<line x1="120.0" y1="2340.0" x2="120.0" y2="2370.0"/>
<line x1="120.0" y1="2370.0" x2="120.0" y2="2400.0"/>
<line x1="120.0" y1="2400.0" x2="120.0" y2="2430.0"/>
<line x1="90.0" y1="2460.0" x2="120.0" y2="2460.0"/>
<line x1="120.0" y1="2430.0" x2="120.0" y2="2460.0"/>
<line x1="120.0" y1="2460.0" x2="120.0" y2="2490.0"/>
<line x1="120.0" y1="2490.0" x2="120.0" y2="2520.0"/>
<line x1="90.0" y1="2550.0" x2="120.0" y2="2550.0"/>
<line x1="90.0" y1="2610.0" x2="120.0" y2="2610.0"/>
<line x1="120.0" y1="2580.0" x2="120.0" y2="2610.0"/>
<line x1="90.0" y1="2640.0" x2="120.0" y2="2640.0"/>
<line x1="90.0" y1="2700.0" x2="120.0" y2="2700.0"/>
<line x1="120.0" y1="2670.0" x2="120.0" y2="2700.0"/>
<line x1="90.0" y1="2760.0" x2="120.0" y2="2760.0"/>
<line x1="120.0" y1="2760.0" x2="120.0" y2="2790.0"/>
<line x1="90.0" y1="2820.0" x2="120.0" y2="2820.0"/>
<line x1="90.0" y1="2850.0" x2="120.0" y2="2850.0"/>
<line x1="90.0" y1="2910.0" x2="120.0" y2="2910.0"/>
<line x1="120.0" y1="2940.0" x2="120.0" y2="2970.0"/>
<line x1="90.0" y1="3000.0" x2="120.0" y2="3000.0"/>
<line x1="120.0" y1="2970.0" x2="120.0" y2="3000.0"/>
<line x1="120.0" y1="3000.0" x2="120.0" y2="3030.0"/>
<line x1="120.0" y1="3060.0" x2="120.0" y2="3090.0"/>
<line x1="90.0" y1="3120.0" x2="120.0" y2="3120.0"/>
<line x1="120.0" y1="3120.0" x2="120.0" y2="3150.0"/>
<line x1="90.0" y1="3180.0" x2="120.0" y2="3180.0"/>
<line x1="90.0" y1="3210.0" x2="120.0" y2="3210.0"/>
<line x1="90.0" y1="3240.0" x2="120.0" y2="3240.0"/>
<line x1="90.0" y1="3300.0" x2="120.0" y2="3300.0"/>
<line x1="120.0" y1="3270.0" x2="120.0" y2="3300.0"/>
<line x1="120.0" y1="3300.0" x2="120.0" y2="3330.0"/>
<line x1="90.0" y1="3360.0" x2="120.0" y2="3360.0"/>
<line x1="120.0" y1="3360.0" x2="120.0" y2="3390.0"/>
<line x1="90.0" y1="3480.0" x2="120.0" y2="3480.0"/>
<line x1="120.0" y1="3450.0" x2="120.0" y2="3480.0"/>
<line x1="90.0" y1="3510.0" x2="120.0" y2="3510.0"/>
<line x1="90.0" y1="3540.0" x2="120.0" y2="3540.0"/>
<line x1="90.0" y1="3570.0" x2="120.0" y2="3570.0"/>
<line x1="120.0" y1="3600.0" x2="120.0" y2="3630.0"/>
<line x1="120.0" y1="3630.0" x2="120.0" y2="3660.0"/>
<line x1="90.0" y1="3690.0" x2="120.0" y2="3690.0"/>
<line x1="90.0" y1="3720.0" x2="120.0" y2="3720.0"/>
<line x1="120.0" y1="3720.0" x2="120.0" y2="3750.0"/>
<line x1="120.0" y1="3750.0" x2="120.0" y2="3780.0"/>
<line x1="90.0" y1="3840.0" x2="120.0" y2="3840.0"/>
<line x1="90.0" y1="3870.0" x2="120.0" y2="3870.0"/>
<line x1="90.0" y1="3900.0" x2="120.0" y2="3900.0"/>
<line x1="120.0" y1="3900.0" x2="120.0" y2="3930.0"/>
<line x1="90.0" y1="3960.0" x2="120.0" y2="3960.0"/>
<line x1="120.0" y1="3960.0" x2="120.0" y2="3990.0"/>
<line x1="90.0" y1="4020.0" x2="120.0" y2="4020.0"/>
<line x1="90.0" y1="4050.0" x2="120.0" y2="4050.0"/>
<line x1="90.0" y1="4080.0" x2="120.0" y2="4080.0"/>
<line x1="120.0" y1="4080.0" x2="120.0" y2="4110.0"/>
<line x1="120.0" y1="4140.0" x2="120.0" y2="4170.0"/>
<line x1="90.0" y1="4200.0" x2="120.0" y2="4200.0"/>
<line x1="120.0" y1="4170.0" x2="120.0" y2="4200.0"/>
<line x1="120.0" y1="4200.0" x2="120.0" y2="4230.0"/>
<line x1="90.0" y1="4260.0" x2="120.0" y2="4260.0"/>
<line x1="90.0" y1="4290.0" x2="120.0" y2="4290.0"/>
<line x1="120.0" y1="4290.0" x2="120.0" y2="4320.0"/>
<line x1="120.0" y1="4320.0" x2="120.0" y2="4350.0"/>
<line x1="120.0" y1="4350.0" x2="120.0" y2="4380.0"/>
<line x1="90.0" y1="4410.0" x2="120.0" y2="4410.0"/>
<line x1="120.0" y1="4380.0" x2="120.0" y2="4410.0"/>
<line x1="90.0" y1="4470.0" x2="120.0" y2="4470.0"/>
<line x1="120.0" y1="4440.0" x2="120.0" y2="4470.0"/>
<line x1="90.0" y1="4500.0" x2="120.0" y2="4500.0"/>
<line x1="120.0" y1="30.0" x2="150.0" y2="30.0"/>
<line x1="150.0" y1="60.0" x2="150.0" y2="90.0"/>
<line x1="150.0" y1="90.0" x2="150.0" y2="120.0"/>
<line x1="120.0" y1="150.0" x2="150.0" y2="150.0"/>
<line x1="150.0" y1="120.0" x2="150.0" y2="150.0"/>
<line x1="150.0" y1="150.0" x2="150.0" y2="180.0"/>
<line x1="120.0" y1="210.0" x2="150.0" y2="210.0"/>
<line x1="150.0" y1="240.0" x2="150.0" y2="270.0"/>
<line x1="150.0" y1="270.0" x2="150.0" y2="300.0"/>
<line x1="150.0" y1="300.0" x2="150.0" y2="330.0"/>
<line x1="120.0" y1="360.0" x2="150.0" y2="360.0"/>
<line x1="150.0" y1="330.0" x2="150.0" y2="360.0"/>
<line x1="120.0" y1="390.0" x2="150.0" y2="390.0"/>
<line x1="120.0" y1="420.0" x2="150.0" y2="420.0"/>
<line x1="150.0" y1="420.0" x2="150.0" y2="450.0"/>
<line x1="150.0" y1="450.0" x2="150.0" y2="480.0"/>
<line x1="120.0" y1="510.0" x2="150.0" y2="510.0"/>
<line x1="150.0" y1="510.0" x2="150.0" y2="540.0"/>
<line x1="120.0" y1="570.0" x2="150.0" y2="570.0"/>
<line x1="120.0" y1="600.0" x2="150.0" y2="600.0"/>
<line x1="150.0" y1="630.0" x2="150.0" y2="660.0"/>
<line x1="150.0" y1="660.0" x2="150.0" y2="690.0"/>
<line x1="120.0" y1="720.0" x2="150.0" y2="720.0"/>
<line x1="150.0" y1="690.0" x2="150.0" y2="720.0"/>
<line x1="120.0" y1="780.0" x2="150.0" y2="780.0"/>
<line x1="150.0" y1="780.0" x2="150.0" y2="810.0"/>
<line x1="120.0" y1="840.0" x2="150.0" y2="840.0"/>
<line x1="150.0" y1="810.0" x2="150.0" y2="840.0"/>
<line x1="120.0" y1="870.0" x2="150.0" y2="870.0"/>
<line x1="150.0" y1="900.0" x2="150.0" y2="930.0"/>
<line x1="150.0" y1="930.0" x2="150.0" y2="960.0"/>
<line x1="120.0" y1="990.0" x2="150.0" y2="990.0"/>
<line x1="150.0" y1="960.0" x2="150.0" y2="990.0"/>
<line x1="120.0" y1="1050.0" x2="150.0" y2="1050.0"/>
<line x1="150.0" y1="1020.0" x2="150.0" y2="1050.0"/>
<line x1="120.0" y1="1080.0" x2="150.0" y2="1080.0"/>
<line x1="150.0" y1="1050.0" x2="150.0" y2="1080.0"/>
<line x1="150.0" y1="1110.0" x2="150.0" y2="1140.0"/>
<line x1="120.0" y1="1170.0" x2="150.0" y2="1170.0"/>
<line x1="120.0" y1="1200.0" x2="150.0" y2="1200.0"/>
<line x1="150.0" y1="1200.0" x2="150.0" y2="1230.0"/>
<line x1="120.0" y1="1290.0" x2="150.0" y2="1290.0"/>
<line x1="120.0" y1="1320.0" x2="150.0" y2="1320.0"/>
<line x1="120.0" y1="1380.0" x2="150.0" y2="1380.0"/>
<line x1="120.0" y1="1410.0" x2="150.0" y2="1410.0"/>
<line x1="120.0" y1="1440.0" x2="150.0" y2="1440.0"/>
<line x1="150.0" y1="1440.0" x2="150.0" y2="1470.0"/>
<line x1="120.0" y1="1500.0" x2="150.0" y2="1500.0"/>
<line x1="150.0" y1="1500.0" x2="150.0" y2="1530.0"/>
<line x1="120.0" y1="1560.0" x2="150.0" y2="1560.0"/>
<line x1="120.0" y1="1620.0" x2="150.0" y2="1620.0"/>
<line x1="150.0" y1="1590.0" x2="150.0" y2="1620.0"/>
<line x1="150.0" y1="1620.0" x2="150.0" y2="1650.0"/>
<line x1="120.0" y1="1680.0" x2="150.0" y2="1680.0"/>
<line x1="150.0" y1="1710.0" x2="150.0" y2="1740.0"/>
<line x1="150.0" y1="1740.0" x2="150.0" y2="1770.0"/>
<line x1="150.0" y1="1770.0" x2="150.0" y2="1800.0"/>
<line x1="150.0" y1="1800.0" x2="150.0" y2="1830.0"/>
<line x1="150.0" y1="1830.0" x2="150.0" y2="1860.0"/>
<line x1="150.0" y1="1860.0" x2="150.0" y2="1890.0"/>
<line x1="150.0" y1="1890.0" x2="150.0" y2="1920.0"/>
<line x1="120.0" y1="1980.0" x2="150.0" y2="1980.0"/>
<line x1="150.0" y1="1950.0" x2="150.0" y2="1980.0"/>
<line x1="150.0" y1="2010.0" x2="150.0" y2="2040.0"/>
<line x1="120.0" y1="2070.0" x2="150.0" y2="2070.0"/>
<line x1="120.0" y1="2100.0" x2="150.0" y2="2100.0"/>
<line x1="120.0" y1="2130.0" x2="150.0" y2="2130.0"/>
<line x1="150.0" y1="2130.0" x2="150.0" y2="2160.0"/>
<line x1="120.0" y1="2190.0" x2="150.0" y2="2190.0"/>
<line x1="120.0" y1="2250.0" x2="150.0" y2="2250.0"/>
<line x1="120.0" y1="2280.0" x2="150.0" y2="2280.0"/>
<line x1="120.0" y1="2310.0" x2="150.0" y2="2310.0"/>
<line x1="150.0" y1="2310.0" x2="150.0" y2="2340.0"/>
<line x1="120.0" y1="2370.0" x2="150.0" y2="2370.0"/>
<line x1="150.0" y1="2400.0" x2="150.0" y2="2430.0"/>
<line x1="150.0" y1="2460.0" x2="150.0" y2="2490.0"/>
<line x1="120.0" y1="2520.0" x2="150.0" y2="2520.0"/>
<line x1="150.0" y1="2490.0" x2="150.0" y2="2520.0"/>
<line x1="120.0" y1="2580.0" x2="150.0" y2="2580.0"/>
<line x1="150.0" y1="2550.0" x2="150.0" y2="2580.0"/>
<line x1="120.0" y1="2640.0" x2="150.0" y2="2640.0"/>
<line x1="150.0" y1="2610.0" x2="150.0" y2="2640.0"/>
<line x1="150.0" y1="2640.0" x2="150.0" y2="2670.0"/>
<line x1="150.0" y1="2670.0" x2="150.0" y2="2700.0"/>
<line x1="120.0" y1="2730.0" x2="150.0" y2="2730.0"/>
<line x1="150.0" y1="2700.0" x2="150.0" y2="2730.0"/>
<line x1="120.0" y1="2760.0" x2="150.0" y2="2760.0"/>
<line x1="120.0" y1="2820.0" x2="150.0" y2="2820.0"/>
<line x1="150.0" y1="2790.0" x2="150.0" y2="2820.0"/>
<line x1="120.0" y1="2880.0" x2="150.0" y2="2880.0"/>
<line x1="150.0" y1="2850.0" x2="150.0" y2="2880.0"/>
<line x1="150.0" y1="2880.0" x2="150.0" y2="2910.0"/>
<line x1="120.0" y1="2970.0" x2="150.0" y2="2970.0"/>
<line x1="150.0" y1="2940.0" x2="150.0" y2="2970.0"/>
<line x1="120.0" y1="3000.0" x2="150.0" y2="3000.0"/>
<line x1="120.0" y1="3030.0" x2="150.0" y2="3030.0"/>
<line x1="120.0" y1="3060.0" x2="150.0" y2="3060.0"/>
<line x1="150.0" y1="3030.0" x2="150.0" y2="3060.0"/>
<line x1="150.0" y1="3060.0" x2="150.0" y2="3090.0"/>
<line x1="120.0" y1="3120.0" x2="150.0" y2="3120.0"/>
<line x1="120.0" y1="3150.0" x2="150.0" y2="3150.0"/>
<line x1="150.0" y1="3150.0" x2="150.0" y2="3180.0"/>
<line x1="120.0" y1="3210.0" x2="150.0" y2="3210.0"/>
<line x1="120.0" y1="3240.0" x2="150.0" y2="3240.0"/>
<line x1="120.0" y1="3270.0" x2="150.0" y2="3270.0"/>
<line x1="150.0" y1="3240.0" x2="150.0" y2="3270.0"/>
<line x1="150.0" y1="3300.0" x2="150.0" y2="3330.0"/>
<line x1="120.0" y1="3360.0" x2="150.0" y2="3360.0"/>
<line x1="150.0" y1="3330.0" x2="150.0" y2="3360.0"/>
<line x1="120.0" y1="3420.0" x2="150.0" y2="3420.0"/>
<line x1="150.0" y1="3420.0" x2="150.0" y2="3450.0"/>
<line x1="120.0" y1="3480.0" x2="150.0" y2="3480.0"/>
<line x1="150.0" y1="3450.0" x2="150.0" y2="3480.0"/>
<line x1="120.0" y1="3540.0" x2="150.0" y2="3540.0"/>
<line x1="150.0" y1="3510.0" x2="150.0" y2="3540.0"/>
<line x1="120.0" y1="3570.0" x2="150.0" y2="3570.0"/>
<line x1="120.0" y1="3630.0" x2="150.0" y2="3630.0"/>
<line x1="150.0" y1="3600.0" x2="150.0" y2="3630.0"/>
<line x1="150.0" y1="3630.0" x2="150.0" y2="3660.0"/>
<line x1="150.0" y1="3690.0" x2="150.0" y2="3720.0"/>
<line x1="120.0" y1="3780.0" x2="150.0" y2="3780.0"/>
<line x1="120.0" y1="3810.0" x2="150.0" y2="3810.0"/>
<line x1="150.0" y1="3780.0" x2="150.0" y2="3810.0"/>
<line x1="120.0" y1="3840.0" x2="150.0" y2="3840.0"/>
<line x1="150.0" y1="3810.0" x2="150.0" y2="3840.0"/>
<line x1="150.0" y1="3870.0" x2="150.0" y2="3900.0"/>
<line x1="120.0" y1="3930.0" x2="150.0" y2="3930.0"/>
<line x1="150.0" y1="3930.0" x2="150.0" y2="3960.0"/>
<line x1="150.0" y1="3960.0" x2="150.0" y2="3990.0"/>
<line x1="120.0" y1="4020.0" x2="150.0" y2="4020.0"/>
<line x1="150.0" y1="3990.0" x2="150.0" y2="4020.0"/>
<line x1="120.0" y1="4050.0" x2="150.0" y2="4050.0"/>
<line x1="150.0" y1="4050.0" x2="150.0" y2="4080.0"/>
<line x1="120.0" y1="4110.0" x2="150.0" y2="4110.0"/>
<line x1="120.0" y1="4140.0" x2="150.0" y2="4140.0"/>
<line x1="150.0" y1="4170.0" x2="150.0" y2="4200.0"/>
<line x1="150.0" y1="4200.0" x2="150.0" y2="4230.0"/>
<line x1="120.0" y1="4260.0" x2="150.0" y2="4260.0"/>
<line x1="150.0" y1="4230.0" x2="150.0" y2="4260.0"/>
<line x1="150.0" y1="4290.0" x2="150.0" y2="4320.0"/>
<line x1="150.0" y1="4320.0" x2="150.0" y2="4350.0"/>
<line x1="120.0" y1="4410.0" x2="150.0" y2="4410.0"/>
<line x1="150.0" y1="4410.0" x2="150.0" y2="4440.0"/>
<line x1="120.0" y1="4470.0" x2="150.0" y2="4470.0"/>
<line x1="120.0" y1="4500.0" x2="150.0" y2="4500.0"/>
<line x1="150.0" y1="60.0" x2="180.0" y2="60.0"/>
<line x1="180.0" y1="30.0" x2="180.0" y2="60.0"/>
<line x1="150.0" y1="90.0" x2="180.0" y2="90.0"/>
<line x1="150.0" y1="150.0" x2="180.0" y2="150.0"/>
<line x1="150.0" y1="210.0" x2="180.0" y2="210.0"/>
<line x1="180.0" y1="180.0" x2="180.0" y2="210.0"/>
<line x1="180.0" y1="210.0" x2="180.0" y2="240.0"/>
<line x1="180.0" y1="240.0" x2="180.0" y2="270.0"/>
<line x1="150.0" y1="300.0" x2="180.0" y2="300.0"/>
<line x1="180.0" y1="270.0" x2="180.0" y2="300.0"/>
<line x1="180.0" y1="330.0" x2="180.0" y2="360.0"/>
<line x1="150.0" y1="390.0" x2="180.0" y2="390.0"/>
<line x1="180.0" y1="360.0" x2="180.0" y2="390.0"/>
<line x1="180.0" y1="390.0" x2="180.0" y2="420.0"/>
<line x1="180.0" y1="420.0" x2="180.0" y2="450.0"/>
<line x1="150.0" y1="480.0" x2="180.0" y2="480.0"/>
<line x1="150.0" y1="510.0" x2="180.0" y2="510.0"/>
<line x1="150.0" y1="570.0" x2="180.0" y2="570.0"/>
<line x1="180.0" y1="540.0" x2="180.0" y2="570.0"/>
<line x1="150.0" y1="600.0" x2="180.0" y2="600.0"/>
<line x1="180.0" y1="600.0" x2="180.0" y2="630.0"/>
<line x1="180.0" y1="630.0" x2="180.0" y2="660.0"/>
<line x1="150.0" y1="690.0" x2="180.0" y2="690.0"/>
<line x1="150.0" y1="750.0" x2="180.0" y2="750.0"/>
<line x1="180.0" y1="720.0" x2="180.0" y2="750.0"/>
<line x1="180.0" y1="750.0" x2="180.0" y2="780.0"/>
<line x1="180.0" y1="780.0" x2="180.0" y2="810.0"/>
<line x1="150.0" y1="840.0" x2="180.0" y2="840.0"/>
<line x1="150.0" y1="870.0" x2="180.0" y2="870.0"/>
<line x1="180.0" y1="870.0" x2="180.0" y2="900.0"/>
<line x1="150.0" y1="930.0" x2="180.0" y2="930.0"/>
<line x1="150.0" y1="990.0" x2="180.0" y2="990.0"/>
<line x1="180.0" y1="990.0" x2="180.0" y2="1020.0"/>
<line x1="150.0" y1="1050.0" x2="180.0" y2="1050.0"/>
<line x1="150.0" y1="1110.0" x2="180.0" y2="1110.0"/>
<line x1="180.0" y1="1080.0" x2="180.0" y2="1110.0"/>
<line x1="150.0" y1="1170.0" x2="180.0" y2="1170.0"/>
<line x1="180.0" y1="1140.0" x2="180.0" y2="1170.0"/>
<line x1="180.0" y1="1170.0" x2="180.0" y2="1200.0"/>
<line x1="180.0" y1="1200.0" x2="180.0" y2="1230.0"/>
<line x1="150.0" y1="1260.0" x2="180.0" y2="1260.0"/>
<line x1="180.0" y1="1230.0" x2="180.0" y2="1260.0"/>
<line x1="150.0" y1="1290.0" x2="180.0" y2="1290.0"/>
<line x1="150.0" y1="1320.0" x2="180.0" y2="1320.0"/>
<line x1="150.0" y1="1350.0" x2="180.0" y2="1350.0"/>
<line x1="150.0" y1="1380.0" x2="180.0" y2="1380.0"/>
<line x1="150.0" y1="1410.0" x2="180.0" y2="1410.0"/>
<line x1="180.0" y1="1380.0" x2="180.0" y2="1410.0"/>
<line x1="180.0" y1="1410.0" x2="180.0" y2="1440.0"/>
<line x1="150.0" y1="1470.0" x2="180.0" y2="1470.0"/>
<line x1="180.0" y1="1470.0" x2="180.0" y2="1500.0"/>
<line x1="150.0" y1="1530.0" x2="180.0" y2="1530.0"/>
<line x1="180.0" y1="1530.0" x2="180.0" y2="1560.0"/>
<line x1="150.0" y1="1590.0" x2="180.0" y2="1590.0"/>
<line x1="180.0" y1="1560.0" x2="180.0" y2="1590.0"/>
<line x1="150.0" y1="1650.0" x2="180.0" y2="1650.0"/>
<line x1="150.0" y1="1680.0" x2="180.0" y2="1680.0"/>
<line x1="150.0" y1="1710.0" x2="180.0" y2="1710.0"/>
<line x1="150.0" y1="1770.0" x2="180.0" y2="1770.0"/>
<line x1="180.0" y1="1800.0" x2="180.0" y2="1830.0"/>
<line x1="180.0" y1="1830.0" x2="180.0" y2="1860.0"/>
<line x1="180.0" y1="1860.0" x2="180.0" y2="1890.0"/>
<line x1="150.0" y1="1920.0" x2="180.0" y2="1920.0"/>
<line x1="180.0" y1="1920.0" x2="180.0" y2="1950.0"/>
<line x1="180.0" y1="1950.0" x2="180.0" y2="1980.0"/>
<line x1="150.0" y1="2040.0" x2="180.0" y2="2040.0"/>
<line x1="180.0" y1="2010.0" x2="180.0" y2="2040.0"/>
<line x1="150.0" y1="2070.0" x2="180.0" y2="2070.0"/>
<line x1="150.0" y1="2100.0" x2="180.0" y2="2100.0"/>
<line x1="180.0" y1="2100.0" x2="180.0" y2="2130.0"/>
<line x1="180.0" y1="2130.0" x2="180.0" y2="2160.0"/>
<line x1="150.0" y1="2190.0" x2="180.0" y2="2190.0"/>
<line x1="180.0" y1="2160.0" x2="180.0" y2="2190.0"/>
<line x1="150.0" y1="2220.0" x2="180.0" y2="2220.0"/>
<line x1="180.0" y1="2190.0" x2="180.0" y2="2220.0"/>
<line x1="180.0" y1="2220.0" x2="180.0" y2="2250.0"/>
<line x1="180.0" y1="2250.0" x2="180.0" y2="2280.0"/>
<line x1="150.0" y1="2310.0" x2="180.0" y2="2310.0"/>
<line x1="150.0" y1="2370.0" x2="180.0" y2="2370.0"/>
<line x1="180.0" y1="2340.0" x2="180.0" y2="2370.0"/>
<line x1="150.0" y1="2430.0" x2="180.0" y2="2430.0"/>
<line x1="150.0" y1="2460.0" x2="180.0" y2="2460.0"/>
<line x1="180.0" y1="2490.0" x2="180.0" y2="2520.0"/>
<line x1="150.0" y1="2550.0" x2="180.0" y2="2550.0"/>
<line x1="180.0" y1="2520.0" x2="180.0" y2="2550.0"/>
<line x1="150.0" y1="2610.0" x2="180.0" y2="2610.0"/>
<line x1="180.0" y1="2580.0" x2="180.0" y2="2610.0"/>
<line x1="150.0" y1="2670.0" x2="180.0" y2="2670.0"/>
<line x1="180.0" y1="2700.0" x2="180.0" y2="2730.0"/>
<line x1="150.0" y1="2760.0" x2="180.0" y2="2760.0"/>
<line x1="180.0" y1="2730.0" x2="180.0" y2="2760.0"/>
<line x1="180.0" y1="2760.0" x2="180.0" y2="2790.0"/>
<line x1="150.0" y1="2820.0" x2="180.0" y2="2820.0"/>
<line x1="180.0" y1="2850.0" x2="180.0" y2="2880.0"/>
<line x1="150.0" y1="2910.0" x2="180.0" y2="2910.0"/>
<line x1="180.0" y1="2880.0" x2="180.0" y2="2910.0"/>
<line x1="150.0" y1="2940.0" x2="180.0" y2="2940.0"/>
<line x1="180.0" y1="2940.0" x2="180.0" y2="2970.0"/>
<line x1="150.0" y1="3030.0" x2="180.0" y2="3030.0"/>
<line x1="150.0" y1="3060.0" x2="180.0" y2="3060.0"/>
<line x1="150.0" y1="3090.0" x2="180.0" y2="3090.0"/>
<line x1="150.0" y1="3120.0" x2="180.0" y2="3120.0"/>
<line x1="180.0" y1="3120.0" x2="180.0" y2="3150.0"/>
<line x1="150.0" y1="3210.0" x2="180.0" y2="3210.0"/>
<line x1="180.0" y1="3180.0" x2="180.0" y2="3210.0"/>
<line x1="150.0" y1="3240.0" x2="180.0" y2="3240.0"/>
<line x1="150.0" y1="3300.0" x2="180.0" y2="3300.0"/>
<line x1="180.0" y1="3270.0" x2="180.0" y2="3300.0"/>
<line x1="180.0" y1="3300.0" x2="180.0" y2="3330.0"/>
<line x1="150.0" y1="3360.0" x2="180.0" y2="3360.0"/>
<line x1="150.0" y1="3390.0" x2="180.0" y2="3390.0"/>
<line x1="150.0" y1="3420.0" x2="180.0" y2="3420.0"/>
<line x1="150.0" y1="3450.0" x2="180.0" y2="3450.0"/>
<line x1="180.0" y1="3510.0" x2="180.0" y2="3540.0"/>
<line x1="150.0" y1="3570.0" x2="180.0" y2="3570.0"/>
<line x1="150.0" y1="3600.0" x2="180.0" y2="3600.0"/>
<line x1="180.0" y1="3570.0" x2="180.0" y2="3600.0"/>
<line x1="150.0" y1="3630.0" x2="180.0" y2="3630.0"/>
<line x1="150.0" y1="3690.0" x2="180.0" y2="3690.0"/>
<line x1="150.0" y1="3750.0" x2="180.0" y2="3750.0"/>
<line x1="180.0" y1="3720.0" x2="180.0" y2="3750.0"/>
<line x1="150.0" y1="3780.0" x2="180.0" y2="3780.0"/>
<line x1="150.0" y1="3840.0" x2="180.0" y2="3840.0"/>
<line x1="150.0" y1="3870.0" x2="180.0" y2="3870.0"/>
<line x1="180.0" y1="3840.0" x2="180.0" y2="3870.0"/>
<line x1="180.0" y1="3870.0" x2="180.0" y2="3900.0"/>
<line x1="180.0" y1="3900.0" x2="180.0" y2="3930.0"/>
<line x1="150.0" y1="3960.0" x2="180.0" y2="3960.0"/>
<line x1="150.0" y1="3990.0" x2="180.0" y2="3990.0"/>
<line x1="150.0" y1="4050.0" x2="180.0" y2="4050.0"/>
<line x1="180.0" y1="4020.0" x2="180.0" y2="4050.0"/>
<line x1="150.0" y1="4110.0" x2="180.0" y2="4110.0"/>
<line x1="180.0" y1="4080.0" x2="180.0" y2="4110.0"/>
<line x1="150.0" y1="4140.0" x2="180.0" y2="4140.0"/>
<line x1="150.0" y1="4200.0" x2="180.0" y2="4200.0"/>
<line x1="180.0" y1="4170.0" x2="180.0" y2="4200.0"/>
<line x1="150.0" y1="4260.0" x2="180.0" y2="4260.0"/>
<line x1="150.0" y1="4290.0" x2="180.0" y2="4290.0"/>
<line x1="150.0" y1="4320.0" x2="180.0" y2="4320.0"/>
<line x1="150.0" y1="4380.0" x2="180.0" y2="4380.0"/>
<line x1="180.0" y1="4350.0" x2="180.0" y2="4380.0"/>
<line x1="150.0" y1="4440.0" x2="180.0" y2="4440.0"/>
<line x1="180.0" y1="4410.0" x2="180.0" y2="4440.0"/>
<line x1="150.0" y1="4470.0" x2="180.0" y2="4470.0"/>
<line x1="150.0" y1="4500.0" x2="180.0" y2="4500.0"/>
<line x1="180.0" y1="30.0" x2="210.0" y2="30.0"/>
<line x1="210.0" y1="30.0" x2="210.0" y2="60.0"/>
<line x1="210.0" y1="60.0" x2="210.0" y2="90.0"/>
<line x1="180.0" y1="120.0" x2="210.0" y2="120.0"/>
<line x1="210.0" y1="90.0" x2="210.0" y2="120.0"/>
<line x1="180.0" y1="150.0" x2="210.0" y2="150.0"/>
<line x1="210.0" y1="150.0" x2="210.0" y2="180.0"/>
<line x1="210.0" y1="180.0" x2="210.0" y2="210.0"/>
<line x1="210.0" y1="210.0" x2="210.0" y2="240.0"/>
<line x1="210.0" y1="240.0" x2="210.0" y2="270.0"/>
<line x1="180.0" y1="300.0" x2="210.0" y2="300.0"/>
<line x1="180.0" y1="330.0" x2="210.0" y2="330.0"/>
<line x1="180.0" y1="390.0" x2="210.0" y2="390.0"/>
<line x1="180.0" y1="450.0" x2="210.0" y2="450.0"/>
<line x1="210.0" y1="420.0" x2="210.0" y2="450.0"/>
<line x1="180.0" y1="480.0" x2="210.0" y2="480.0"/>
<line x1="210.0" y1="480.0" x2="210.0" y2="510.0"/>
<line x1="180.0" y1="540.0" x2="210.0" y2="540.0"/>
<line x1="210.0" y1="510.0" x2="210.0" y2="540.0"/>
<line x1="210.0" y1="540.0" x2="210.0" y2="570.0"/>
<line x1="180.0" y1="600.0" x2="210.0" y2="600.0"/>
<line x1="210.0" y1="570.0" x2="210.0" y2="600.0"/>
<line x1="210.0" y1="630.0" x2="210.0" y2="660.0"/>
<line x1="180.0" y1="690.0" x2="210.0" y2="690.0"/>
<line x1="210.0" y1="660.0" x2="210.0" y2="690.0"/>
<line x1="180.0" y1="720.0" x2="210.0" y2="720.0"/>
<line x1="180.0" y1="780.0" x2="210.0" y2="780.0"/>
<line x1="180.0" y1="840.0" x2="210.0" y2="840.0"/>
<line x1="210.0" y1="810.0" x2="210.0" y2="840.0"/>
<line x1="210.0" y1="840.0" x2="210.0" y2="870.0"/>
<line x1="210.0" y1="870.0" x2="210.0" y2="900.0"/>
<line x1="180.0" y1="930.0" x2="210.0" y2="930.0"/>
<line x1="210.0" y1="900.0" x2="210.0" y2="930.0"/>
<line x1="180.0" y1="960.0" x2="210.0" y2="960.0"/>
<line x1="210.0" y1="960.0" x2="210.0" y2="990.0"/>
<line x1="180.0" y1="1020.0" x2="210.0" y2="1020.0"/>
<line x1="180.0" y1="1050.0" x2="210.0" y2="1050.0"/>
<line x1="180.0" y1="1080.0" x2="210.0" y2="1080.0"/>
<line x1="180.0" y1="1110.0" x2="210.0" y2="1110.0"/>
<line x1="180.0" y1="1140.0" x2="210.0" y2="1140.0"/>
<line x1="180.0" y1="1200.0" x2="210.0" y2="1200.0"/>
<line x1="210.0" y1="1230.0" x2="210.0" y2="1260.0"/>
<line x1="180.0" y1="1290.0" x2="210.0" y2="1290.0"/>
<line x1="210.0" y1="1260.0" x2="210.0" y2="1290.0"/>
<line x1="180.0" y1="1320.0" x2="210.0" y2="1320.0"/>
<line x1="180.0" y1="1350.0" x2="210.0" y2="1350.0"/>
<line x1="210.0" y1="1350.0" x2="210.0" y2="1380.0"/>
<line x1="210.0" y1="1380.0" x2="210.0" y2="1410.0"/>
<line x1="210.0" y1="1410.0" x2="210.0" y2="1440.0"/>
<line x1="180.0" y1="1500.0" x2="210.0" y2="1500.0"/>
<line x1="210.0" y1="1470.0" x2="210.0" y2="1500.0"/>
<line x1="210.0" y1="1500.0" x2="210.0" y2="1530.0"/>
<line x1="180.0" y1="1560.0" x2="210.0" y2="1560.0"/>
<line x1="180.0" y1="1620.0" x2="210.0" y2="1620.0"/>
<line x1="210.0" y1="1590.0" x2="210.0" y2="1620.0"/>
<line x1="180.0" y1="1650.0" x2="210.0" y2="1650.0"/>
<line x1="180.0" y1="1680.0" x2="210.0" y2="1680.0"/>
<line x1="180.0" y1="1710.0" x2="210.0" y2="1710.0"/>
<line x1="180.0" y1="1740.0" x2="210.0" y2="1740.0"/>
<line x1="180.0" y1="1770.0" x2="210.0" y2="1770.0"/>
<line x1="210.0" y1="1770.0" x2="210.0" y2="1800.0"/>
<line x1="180.0" y1="1830.0" x2="210.0" y2="1830.0"/>
<line x1="210.0" y1="1830.0" x2="210.0" y2="1860.0"/>
<line x1="180.0" y1="1920.0" x2="210.0" y2="1920.0"/>
<line x1="210.0" y1="1890.0" x2="210.0" y2="1920.0"/>
<line x1="180.0" y1="1980.0" x2="210.0" y2="1980.0"/>
<line x1="180.0" y1="2010.0" x2="210.0" y2="2010.0"/>
<line x1="210.0" y1="1980.0" x2="210.0" y2="2010.0"/>
<line x1="180.0" y1="2070.0" x2="210.0" y2="2070.0"/>
<line x1="210.0" y1="2040.0" x2="210.0" y2="2070.0"/>
<line x1="180.0" y1="2100.0" x2="210.0" y2="2100.0"/>
<line x1="210.0" y1="2130.0" x2="210.0" y2="2160.0"/>
<line x1="180.0" y1="2190.0" x2="210.0" y2="2190.0"/>
<line x1="180.0" y1="2250.0" x2="210.0" y2="2250.0"/>
<line x1="210.0" y1="2250.0" x2="210.0" y2="2280.0"/>
<line x1="180.0" y1="2310.0" x2="210.0" y2="2310.0"/>
<line x1="210.0" y1="2280.0" x2="210.0" y2="2310.0"/>
<line x1="180.0" y1="2340.0" x2="210.0" y2="2340.0"/>
<line x1="180.0" y1="2400.0" x2="210.0" y2="2400.0"/>
<line x1="210.0" y1="2370.0" x2="210.0" y2="2400.0"/>
<line x1="180.0" y1="2430.0" x2="210.0" y2="2430.0"/>
<line x1="180.0" y1="2460.0" x2="210.0" y2="2460.0"/>
<line x1="210.0" y1="2430.0" x2="210.0" y2="2460.0"/>
<line x1="180.0" y1="2490.0" x2="210.0" y2="2490.0"/>
<line x1="180.0" y1="2550.0" x2="210.0" y2="2550.0"/>
<line x1="210.0" y1="2520.0" x2="210.0" y2="2550.0"/>
<line x1="210.0" y1="2550.0" x2="210.0" y2="2580.0"/>
<line x1="180.0" y1="2610.0" x2="210.0" y2="2610.0"/>
<line x1="180.0" y1="2640.0" x2="210.0" y2="2640.0"/>
<line x1="180.0" y1="2670.0" x2="210.0" y2="2670.0"/>
<line x1="210.0" y1="2670.0" x2="210.0" y2="2700.0"/>
<line x1="210.0" y1="2700.0" x2="210.0" y2="2730.0"/>
<line x1="180.0" y1="2760.0" x2="210.0" y2="2760.0"/>
<line x1="180.0" y1="2820.0" x2="210.0" y2="2820.0"/>
<line x1="210.0" y1="2790.0" x2="210.0" y2="2820.0"/>
<line x1="180.0" y1="2880.0" x2="210.0" y2="2880.0"/>
<line x1="210.0" y1="2850.0" x2="210.0" y2="2880.0"/>
<line x1="210.0" y1="2910.0" x2="210.0" y2="2940.0"/>
<line x1="180.0" y1="2970.0" x2="210.0" y2="2970.0"/>
<line x1="210.0" y1="2940.0" x2="210.0" y2="2970.0"/>
<line x1="180.0" y1="3000.0" x2="210.0" y2="3000.0"/>
<line x1="210.0" y1="2970.0" x2="210.0" y2="3000.0"/>
<line x1="180.0" y1="3030.0" x2="210.0" y2="3030.0"/>
<line x1="180.0" y1="3090.0" x2="210.0" y2="3090.0"/>
<line x1="210.0" y1="3090.0" x2="210.0" y2="3120.0"/>
<line x1="180.0" y1="3150.0" x2="210.0" y2="3150.0"/>
<line x1="180.0" y1="3180.0" x2="210.0" y2="3180.0"/>
<line x1="180.0" y1="3210.0" x2="210.0" y2="3210.0"/>
<line x1="210.0" y1="3210.0" x2="210.0" y2="3240.0"/>
<line x1="180.0" y1="3270.0" x2="210.0" y2="3270.0"/>
<line x1="210.0" y1="3240.0" x2="210.0" y2="3270.0"/>
<line x1="210.0" y1="3300.0" x2="210.0" y2="3330.0"/>
<line x1="180.0" y1="3360.0" x2="210.0" y2="3360.0"/>
<line x1="180.0" y1="3390.0" x2="210.0" y2="3390.0"/>
<line x1="180.0" y1="3420.0" x2="210.0" y2="3420.0"/>
<line x1="210.0" y1="3420.0" x2="210.0" y2="3450.0"/>
<line x1="180.0" y1="3480.0" x2="210.0" y2="3480.0"/>
<line x1="210.0" y1="3450.0" x2="210.0" y2="3480.0"/>
<line x1="180.0" y1="3510.0" x2="210.0" y2="3510.0"/>
<line x1="210.0" y1="3510.0" x2="210.0" y2="3540.0"/>
<line x1="210.0" y1="3540.0" x2="210.0" y2="3570.0"/>
<line x1="210.0" y1="3570.0" x2="210.0" y2="3600.0"/>
<line x1="180.0" y1="3630.0" x2="210.0" y2="3630.0"/>
<line x1="210.0" y1="3600.0" x2="210.0" y2="3630.0"/>
<line x1="180.0" y1="3660.0" x2="210.0" y2="3660.0"/>
<line x1="210.0" y1="3630.0" x2="210.0" y2="3660.0"/>
<line x1="180.0" y1="3690.0" x2="210.0" y2="3690.0"/>
<line x1="180.0" y1="3720.0" x2="210.0" y2="3720.0"/>
<line x1="210.0" y1="3720.0" x2="210.0" y2="3750.0"/>
<line x1="180.0" y1="3780.0" x2="210.0" y2="3780.0"/>
<line x1="210.0" y1="3750.0" x2="210.0" y2="3780.0"/>
<line x1="180.0" y1="3810.0" x2="210.0" y2="3810.0"/>
<line x1="180.0" y1="3840.0" x2="210.0" y2="3840.0"/>
<line x1="210.0" y1="3840.0" x2="210.0" y2="3870.0"/>
<line x1="180.0" y1="3900.0" x2="210.0" y2="3900.0"/>
<line x1="210.0" y1="3900.0" x2="210.0" y2="3930.0"/>
<line x1="210.0" y1="3930.0" x2="210.0" y2="3960.0"/>
<line x1="180.0" y1="3990.0" x2="210.0" y2="3990.0"/>
<line x1="210.0" y1="3960.0" x2="210.0" y2="3990.0"/>
<line x1="180.0" y1="4020.0" x2="210.0" y2="4020.0"/>
<line x1="180.0" y1="4050.0" x2="210.0" y2="4050.0"/>
<line x1="180.0" y1="4080.0" x2="210.0" y2="4080.0"/>
<line x1="180.0" y1="4140.0" x2="210.0" y2="4140.0"/>
<line x1="210.0" y1="4110.0" x2="210.0" y2="4140.0"/>
<line x1="210.0" y1="4140.0" x2="210.0" y2="4170.0"/>
<line x1="210.0" y1="4170.0" x2="210.0" y2="4200.0"/>
<line x1="180.0" y1="4230.0" x2="210.0" y2="4230.0"/>
<line x1="210.0" y1="4200.0" x2="210.0" y2="4230.0"/>
<line x1="180.0" y1="4260.0" x2="210.0" y2="4260.0"/>
<line x1="210.0" y1="4260.0" x2="210.0" y2="4290.0"/>
<line x1="180.0" y1="4320.0" x2="210.0" y2="4320.0"/>
<line x1="180.0" y1="4350.0" x2="210.0" y2="4350.0"/>
<line x1="210.0" y1="4350.0" x2="210.0" y2="4380.0"/>
<line x1="180.0" y1="4410.0" x2="210.0" y2="4410.0"/>
<line x1="180.0" y1="4470.0" x2="210.0" y2="4470.0"/>
<line x1="210.0" y1="4440.0" x2="210.0" y2="4470.0"/>
<line x1="180.0" y1="4500.0" x2="210.0" y2="4500.0"/>
<line x1="240.0" y1="0.0" x2="240.0" y2="30.0"/>
<line x1="210.0" y1="60.0" x2="240.0" y2="60.0"/>
<line x1="210.0" y1="120.0" x2="240.0" y2="120.0"/>
<line x1="240.0" y1="120.0" x2="240.0" y2="150.0"/>
<line x1="240.0" y1="150.0" x2="240.0" y2="180.0"/>
<line x1="210.0" y1="210.0" x2="240.0" y2="210.0"/>
<line x1="240.0" y1="240.0" x2="240.0" y2="270.0"/>
<line x1="210.0" y1="300.0" x2="240.0" y2="300.0"/>
<line x1="240.0" y1="270.0" x2="240.0" y2="300.0"/>
<line x1="240.0" y1="300.0" x2="240.0" y2="330.0"/>
<line x1="210.0" y1="360.0" x2="240.0" y2="360.0"/>
<line x1="240.0" y1="330.0" x2="240.0" y2="360.0"/>
<line x1="210.0" y1="390.0" x2="240.0" y2="390.0"/>
<line x1="240.0" y1="390.0" x2="240.0" y2="420.0"/>
<line x1="210.0" y1="450.0" x2="240.0" y2="450.0"/>
<line x1="210.0" y1="480.0" x2="240.0" y2="480.0"/>
<line x1="240.0" y1="510.0" x2="240.0" y2="540.0"/>
<line x1="240.0" y1="540.0" x2="240.0" y2="570.0"/>
<line x1="240.0" y1="570.0" x2="240.0" y2="600.0"/>
<line x1="210.0" y1="630.0" x2="240.0" y2="630.0"/>
<line x1="240.0" y1="600.0" x2="240.0" y2="630.0"/>
<line x1="240.0" y1="630.0" x2="240.0" y2="660.0"/>
<line x1="210.0" y1="690.0" x2="240.0" y2="690.0"/>
<line x1="210.0" y1="720.0" x2="240.0" y2="720.0"/>
<line x1="210.0" y1="750.0" x2="240.0" y2="750.0"/>
<line x1="210.0" y1="780.0" x2="240.0" y2="780.0"/>
<line x1="240.0" y1="750.0" x2="240.0" y2="780.0"/>
<line x1="240.0" y1="810.0" x2="240.0" y2="840.0"/>
<line x1="240.0" y1="840.0" x2="240.0" y2="870.0"/>
<line x1="240.0" y1="870.0" x2="240.0" y2="900.0"/>
<line x1="240.0" y1="900.0" x2="240.0" y2="930.0"/>
<line x1="210.0" y1="960.0" x2="240.0" y2="960.0"/>
<line x1="240.0" y1="930.0" x2="240.0" y2="960.0"/>
<line x1="240.0" y1="960.0" x2="240.0" y2="990.0"/>
<line x1="240.0" y1="990.0" x2="240.0" y2="1020.0"/>
<line x1="210.0" y1="1050.0" x2="240.0" y2="1050.0"/>
<line x1="240.0" y1="1020.0" x2="240.0" y2="1050.0"/>
<line x1="210.0" y1="1080.0" x2="240.0" y2="1080.0"/>
<line x1="210.0" y1="1110.0" x2="240.0" y2="1110.0"/>
<line x1="240.0" y1="1110.0" x2="240.0" y2="1140.0"/>
<line x1="210.0" y1="1170.0" x2="240.0" y2="1170.0"/>
<line x1="240.0" y1="1140.0" x2="240.0" y2="1170.0"/>
<line x1="210.0" y1="1200.0" x2="240.0" y2="1200.0"/>
<line x1="210.0" y1="1230.0" x2="240.0" y2="1230.0"/>
<line x1="240.0" y1="1230.0" x2="240.0" y2="1260.0"/>
<line x1="240.0" y1="1260.0" x2="240.0" y2="1290.0"/>
<line x1="210.0" y1="1320.0" x2="240.0" y2="1320.0"/>
<line x1="240.0" y1="1320.0" x2="240.0" y2="1350.0"/>
<line x1="210.0" y1="1380.0" x2="240.0" y2="1380.0"/>
<line x1="240.0" y1="1380.0" x2="240.0" y2="1410.0"/>
<line x1="240.0" y1="1410.0" x2="240.0" y2="1440.0"/>
<line x1="210.0" y1="1470.0" x2="240.0" y2="1470.0"/>
<line x1="240.0" y1="1440.0" x2="240.0" y2="1470.0"/>
<line x1="210.0" y1="1530.0" x2="240.0" y2="1530.0"/>
<line x1="240.0" y1="1530.0" x2="240.0" y2="1560.0"/>
<line x1="210.0" y1="1590.0" x2="240.0" y2="1590.0"/>
<line x1="240.0" y1="1560.0" x2="240.0" y2="1590.0"/>
<line x1="210.0" y1="1620.0" x2="240.0" y2="1620.0"/>
<line x1="210.0" y1="1650.0" x2="240.0" y2="1650.0"/>
<line x1="240.0" y1="1680.0" x2="240.0" y2="1710.0"/>
<line x1="210.0" y1="1740.0" x2="240.0" y2="1740.0"/>
<line x1="240.0" y1="1710.0" x2="240.0" y2="1740.0"/>
<line x1="240.0" y1="1740.0" x2="240.0" y2="1770.0"/>
<line x1="210.0" y1="1800.0" x2="240.0" y2="1800.0"/>
<line x1="240.0" y1="1800.0" x2="240.0" y2="1830.0"/>
<line x1="210.0" y1="1860.0" x2="240.0" y2="1860.0"/>
<line x1="210.0" y1="1890.0" x2="240.0" y2="1890.0"/>
<line x1="210.0" y1="1950.0" x2="240.0" y2="1950.0"/>
<line x1="240.0" y1="1920.0" x2="240.0" y2="1950.0"/>
<line x1="210.0" y1="1980.0" x2="240.0" y2="1980.0"/>
<line x1="210.0" y1="2040.0" x2="240.0" y2="2040.0"/>
<line x1="240.0" y1="2010.0" x2="240.0" y2="2040.0"/>
<line x1="210.0" y1="2100.0" x2="240.0" y2="2100.0"/>
<line x1="210.0" y1="2130.0" x2="240.0" y2="2130.0"/>
<line x1="210.0" y1="2160.0" x2="240.0" y2="2160.0"/>
<line x1="240.0" y1="2160.0" x2="240.0" y2="2190.0"/>
<line x1="210.0" y1="2220.0" x2="240.0" y2="2220.0"/>
<line x1="240.0" y1="2190.0" x2="240.0" y2="2220.0"/>
<line x1="240.0" y1="2220.0" x2="240.0" y2="2250.0"/>
<line x1="240.0" y1="2250.0" x2="240.0" y2="2280.0"/>
<line x1="240.0" y1="2280.0" x2="240.0" y2="2310.0"/>
<line x1="210.0" y1="2340.0" x2="240.0" y2="2340.0"/>
<line x1="240.0" y1="2310.0" x2="240.0" y2="2340.0"/>
<line x1="240.0" y1="2340.0" x2="240.0" y2="2370.0"/>
<line x1="210.0" y1="2400.0" x2="240.0" y2="2400.0"/>
<line x1="240.0" y1="2400.0" x2="240.0" y2="2430.0"/>
<line x1="240.0" y1="2430.0" x2="240.0" y2="2460.0"/>
<line x1="240.0" y1="2460.0" x2="240.0" y2="2490.0"/>
<line x1="210.0" y1="2520.0" x2="240.0" y2="2520.0"/>
<line x1="210.0" y1="2580.0" x2="240.0" y2="2580.0"/>
<line x1="240.0" y1="2580.0" x2="240.0" y2="2610.0"/>
<line x1="210.0" y1="2640.0" x2="240.0" y2="2640.0"/>
<line x1="240.0" y1="2610.0" x2="240.0" y2="2640.0"/>
<line x1="240.0" y1="2640.0" x2="240.0" y2="2670.0"/>
<line x1="210.0" y1="2730.0" x2="240.0" y2="2730.0"/>
<line x1="240.0" y1="2700.0" x2="240.0" y2="2730.0"/>
<line x1="210.0" y1="2760.0" x2="240.0" y2="2760.0"/>
<line x1="210.0" y1="2790.0" x2="240.0" y2="2790.0"/>
<line x1="240.0" y1="2790.0" x2="240.0" y2="2820.0"/>
<line x1="210.0" y1="2850.0" x2="240.0" y2="2850.0"/>
<line x1="210.0" y1="2880.0" x2="240.0" y2="2880.0"/>
<line x1="240.0" y1="2880.0" x2="240.0" y2="2910.0"/>
<line x1="210.0" y1="2970.0" x2="240.0" y2="2970.0"/>
<line x1="240.0" y1="3000.0" x2="240.0" y2="3030.0"/>
<line x1="210.0" y1="3060.0" x2="240.0" y2="3060.0"/>
<line x1="240.0" y1="3030.0" x2="240.0" y2="3060.0"/>
<line x1="240.0" y1="3060.0" x2="240.0" y2="3090.0"/>
<line x1="210.0" y1="3120.0" x2="240.0" y2="3120.0"/>
<line x1="210.0" y1="3150.0" x2="240.0" y2="3150.0"/>
<line x1="210.0" y1="3180.0" x2="240.0" y2="3180.0"/>
<line x1="240.0" y1="3240.0" x2="240.0" y2="3270.0"/>
<line x1="210.0" y1="3300.0" x2="240.0" y2="3300.0"/>
<line x1="240.0" y1="3270.0" x2="240.0" y2="3300.0"/>
<line x1="240.0" y1="3300.0" x2="240.0" y2="3330.0"/>
<line x1="210.0" y1="3360.0" x2="240.0" y2="3360.0"/>
<line x1="240.0" y1="3330.0" x2="240.0" y2="3360.0"/>
<line x1="210.0" y1="3390.0" x2="240.0" y2="3390.0"/>
<line x1="210.0" y1="3420.0" x2="240.0" y2="3420.0"/>
<line x1="240.0" y1="3390.0" x2="240.0" y2="3420.0"/>
<line x1="210.0" y1="3480.0" x2="240.0" y2="3480.0"/>
<line x1="240.0" y1="3480.0" x2="240.0" y2="3510.0"/>
<line x1="240.0" y1="3510.0" x2="240.0" y2="3540.0"/>
<line x1="210.0" y1="3570.0" x2="240.0" y2="3570.0"/>
<line x1="210.0" y1="3660.0" x2="240.0" y2="3660.0"/>
<line x1="240.0" y1="3630.0" x2="240.0" y2="3660.0"/>
<line x1="210.0" y1="3690.0" x2="240.0" y2="3690.0"/>
<line x1="210.0" y1="3720.0" x2="240.0" y2="3720.0"/>
<line x1="210.0" y1="3780.0" x2="240.0" y2="3780.0"/>
<line x1="210.0" y1="3810.0" x2="240.0" y2="3810.0"/>
<line x1="210.0" y1="3840.0" x2="240.0" y2="3840.0"/>
<line x1="240.0" y1="3840.0" x2="240.0" y2="3870.0"/>
<line x1="210.0" y1="3900.0" x2="240.0" y2="3900.0"/>
<line x1="210.0" y1="3960.0" x2="240.0" y2="3960.0"/>
<line x1="210.0" y1="3990.0" x2="240.0" y2="3990.0"/>
<line x1="210.0" y1="4020.0" x2="240.0" y2="4020.0"/>
<line x1="210.0" y1="4080.0" x2="240.0" y2="4080.0"/>
<line x1="240.0" y1="4050.0" x2="240.0" y2="4080.0"/>
<line x1="210.0" y1="4110.0" x2="240.0" y2="4110.0"/>
<line x1="210.0" y1="4170.0" x2="240.0" y2="4170.0"/>
<line x1="240.0" y1="4170.0" x2="240.0" y2="4200.0"/>
<line x1="210.0" y1="4230.0" x2="240.0" y2="4230.0"/>
<line x1="210.0" y1="4260.0" x2="240.0" y2="4260.0"/>
<line x1="210.0" y1="4320.0" x2="240.0" y2="4320.0"/>
<line x1="240.0" y1="4290.0" x2="240.0" y2="4320.0"/>
<line x1="240.0" y1="4320.0" x2="240.0" y2="4350.0"/>
<line x1="210.0" y1="4380.0" x2="240.0" y2="4380.0"/>
<line x1="210.0" y1="4410.0" x2="240.0" y2="4410.0"/>
<line x1="210.0" y1="4440.0" x2="240.0" y2="4440.0"/>
<line x1="210.0" y1="4500.0" x2="240.0" y2="4500.0"/>
<line x1="240.0" y1="30.0" x2="270.0" y2="30.0"/>
<line x1="270.0" y1="30.0" x2="270.0" y2="60.0"/>
<line x1="240.0" y1="90.0" x2="270.0" y2="90.0"/>
<line x1="270.0" y1="60.0" x2="270.0" y2="90.0"/>
<line x1="270.0" y1="90.0" x2="270.0" y2="120.0"/>
<line x1="270.0" y1="120.0" x2="270.0" y2="150.0"/>
<line x1="240.0" y1="180.0" x2="270.0" y2="180.0"/>
<line x1="240.0" y1="210.0" x2="270.0" y2="210.0"/>
<line x1="240.0" y1="240.0" x2="270.0" y2="240.0"/>
<line x1="270.0" y1="270.0" x2="270.0" y2="300.0"/>
<line x1="270.0" y1="300.0" x2="270.0" y2="330.0"/>
<line x1="270.0" y1="330.0" x2="270.0" y2="360.0"/>
<line x1="240.0" y1="390.0" x2="270.0" y2="390.0"/>
<line x1="270.0" y1="360.0" x2="270.0" y2="390.0"/>
<line x1="240.0" y1="450.0" x2="270.0" y2="450.0"/>
<line x1="240.0" y1="480.0" x2="270.0" y2="480.0"/>
<line x1="270.0" y1="480.0" x2="270.0" y2="510.0"/>
<line x1="270.0" y1="510.0" x2="270.0" y2="540.0"/>
<line x1="240.0" y1="570.0" x2="270.0" y2="570.0"/>
<line x1="270.0" y1="600.0" x2="270.0" y2="630.0"/>
<line x1="270.0" y1="630.0" x2="270.0" y2="660.0"/>
<line x1="240.0" y1="690.0" x2="270.0" y2="690.0"/>
<line x1="240.0" y1="720.0" x2="270.0" y2="720.0"/>
<line x1="270.0" y1="720.0" x2="270.0" y2="750.0"/>
<line x1="270.0" y1="750.0" x2="270.0" y2="780.0"/>
<line x1="240.0" y1="810.0" x2="270.0" y2="810.0"/>
<line x1="270.0" y1="780.0" x2="270.0" y2="810.0"/>
<line x1="270.0" y1="840.0" x2="270.0" y2="870.0"/>
<line x1="270.0" y1="870.0" x2="270.0" y2="900.0"/>
<line x1="270.0" y1="900.0" x2="270.0" y2="930.0"/>
<line x1="270.0" y1="930.0" x2="270.0" y2="960.0"/>
<line x1="240.0" y1="990.0" x2="270.0" y2="990.0"/>
<line x1="240.0" y1="1050.0" x2="270.0" y2="1050.0"/>
<line x1="240.0" y1="1080.0" x2="270.0" y2="1080.0"/>
<line x1="240.0" y1="1140.0" x2="270.0" y2="1140.0"/>
<line x1="240.0" y1="1200.0" x2="270.0" y2="1200.0"/>
<line x1="270.0" y1="1170.0" x2="270.0" y2="1200.0"/>
<line x1="240.0" y1="1230.0" x2="270.0" y2="1230.0"/>
<line x1="240.0" y1="1290.0" x2="270.0" y2="1290.0"/>
<line x1="240.0" y1="1320.0" x2="270.0" y2="1320.0"/>
<line x1="240.0" y1="1380.0" x2="270.0" y2="1380.0"/>
<line x1="270.0" y1="1350.0" x2="270.0" y2="1380.0"/>
<line x1="240.0" y1="1440.0" x2="270.0" y2="1440.0"/>
<line x1="240.0" y1="1500.0" x2="270.0" y2="1500.0"/>
<line x1="270.0" y1="1470.0" x2="270.0" y2="1500.0"/>
<line x1="240.0" y1="1530.0" x2="270.0" y2="1530.0"/>
<line x1="240.0" y1="1620.0" x2="270.0" y2="1620.0"/>
<line x1="270.0" y1="1590.0" x2="270.0" y2="1620.0"/>
<line x1="240.0" y1="1650.0" x2="270.0" y2="1650.0"/>
<line x1="240.0" y1="1680.0" x2="270.0" y2="1680.0"/>
<line x1="270.0" y1="1650.0" x2="270.0" y2="1680.0"/>
<line x1="240.0" y1="1740.0" x2="270.0" y2="1740.0"/>
<line x1="270.0" y1="1740.0" x2="270.0" y2="1770.0"/>
<line x1="240.0" y1="1800.0" x2="270.0" y2="1800.0"/>
<line x1="270.0" y1="1770.0" x2="270.0" y2="1800.0"/>
<line x1="240.0" y1="1860.0" x2="270.0" y2="1860.0"/>
<line x1="270.0" y1="1830.0" x2="270.0" y2="1860.0"/>
<line x1="270.0" y1="1860.0" x2="270.0" y2="1890.0"/>
<line x1="240.0" y1="1920.0" x2="270.0" y2="1920.0"/>
<line x1="270.0" y1="1890.0" x2="270.0" y2="1920.0"/>
<line x1="240.0" y1="1950.0" x2="270.0" y2="1950.0"/>
<line x1="270.0" y1="1950.0" x2="270.0" y2="1980.0"/>
<line x1="240.0" y1="2010.0" x2="270.0" y2="2010.0"/>
<line x1="240.0" y1="2070.0" x2="270.0" y2="2070.0"/>
<line x1="270.0" y1="2040.0" x2="270.0" y2="2070.0"/>
<line x1="240.0" y1="2100.0" x2="270.0" y2="2100.0"/>
<line x1="270.0" y1="2070.0" x2="270.0" y2="2100.0"/>
<line x1="240.0" y1="2130.0" x2="270.0" y2="2130.0"/>
<line x1="270.0" y1="2160.0" x2="270.0" y2="2190.0"/>
<line x1="240.0" y1="2220.0" x2="270.0" y2="2220.0"/>
<line x1="240.0" y1="2280.0" x2="270.0" y2="2280.0"/>
<line x1="240.0" y1="2340.0" x2="270.0" y2="2340.0"/>
<line x1="270.0" y1="2340.0" x2="270.0" y2="2370.0"/>
<line x1="240.0" y1="2400.0" x2="270.0" y2="2400.0"/>
<line x1="270.0" y1="2370.0" x2="270.0" y2="2400.0"/>
<line x1="270.0" y1="2430.0" x2="270.0" y2="2460.0"/>
<line x1="240.0" y1="2490.0" x2="270.0" y2="2490.0"/>
<line x1="240.0" y1="2520.0" x2="270.0" y2="2520.0"/>
<line x1="270.0" y1="2490.0" x2="270.0" y2="2520.0"/>
<line x1="240.0" y1="2550.0" x2="270.0" y2="2550.0"/>
<line x1="240.0" y1="2580.0" x2="270.0" y2="2580.0"/>
<line x1="270.0" y1="2610.0" x2="270.0" y2="2640.0"/>
<line x1="270.0" y1="2640.0" x2="270.0" y2="2670.0"/>
<line x1="240.0" y1="2700.0" x2="270.0" y2="2700.0"/>
<line x1="240.0" y1="2760.0" x2="270.0" y2="2760.0"/>
<line x1="270.0" y1="2730.0" x2="270.0" y2="2760.0"/>
<line x1="270.0" y1="2760.0" x2="270.0" y2="2790.0"/>
<line x1="240.0" y1="2820.0" x2="270.0" y2="2820.0"/>
<line x1="240.0" y1="2850.0" x2="270.0" y2="2850.0"/>
<line x1="240.0" y1="2880.0" x2="270.0" y2="2880.0"/>
<line x1="240.0" y1="2940.0" x2="270.0" y2="2940.0"/>
<line x1="270.0" y1="2910.0" x2="270.0" y2="2940.0"/>
<line x1="240.0" y1="2970.0" x2="270.0" y2="2970.0"/>
<line x1="270.0" y1="2940.0" x2="270.0" y2="2970.0"/>
<line x1="240.0" y1="3000.0" x2="270.0" y2="3000.0"/>
<line x1="240.0" y1="3060.0" x2="270.0" y2="3060.0"/>
<line x1="240.0" y1="3090.0" x2="270.0" y2="3090.0"/>
<line x1="270.0" y1="3090.0" x2="270.0" y2="3120.0"/>
<line x1="240.0" y1="3150.0" x2="270.0" y2="3150.0"/>
<line x1="270.0" y1="3120.0" x2="270.0" y2="3150.0"/>
<line x1="240.0" y1="3180.0" x2="270.0" y2="3180.0"/>
<line x1="240.0" y1="3210.0" x2="270.0" y2="3210.0"/>
<line x1="240.0" y1="3240.0" x2="270.0" y2="3240.0"/>
<line x1="270.0" y1="3210.0" x2="270.0" y2="3240.0"/>
<line x1="270.0" y1="3270.0" x2="270.0" y2="3300.0"/>
<line x1="270.0" y1="3300.0" x2="270.0" y2="3330.0"/>
<line x1="240.0" y1="3360.0" x2="270.0" y2="3360.0"/>
<line x1="270.0" y1="3390.0" x2="270.0" y2="3420.0"/>
<line x1="240.0" y1="3450.0" x2="270.0" y2="3450.0"/>
<line x1="270.0" y1="3420.0" x2="270.0" y2="3450.0"/>
<line x1="240.0" y1="3480.0" x2="270.0" y2="3480.0"/>
<line x1="270.0" y1="3450.0" x2="270.0" y2="3480.0"/>
<line x1="270.0" y1="3480.0" x2="270.0" y2="3510.0"/>
<line x1="240.0" y1="3540.0" x2="270.0" y2="3540.0"/>
<line x1="240.0" y1="3570.0" x2="270.0" y2="3570.0"/>
<line x1="270.0" y1="3540.0" x2="270.0" y2="3570.0"/>
<line x1="240.0" y1="3600.0" x2="270.0" y2="3600.0"/>
<line x1="270.0" y1="3600.0" x2="270.0" y2="3630.0"/>
<line x1="270.0" y1="3630.0" x2="270.0" y2="3660.0"/>
<line x1="240.0" y1="3690.0" x2="270.0" y2="3690.0"/>
<line x1="270.0" y1="3660.0" x2="270.0" y2="3690.0"/>
<line x1="270.0" y1="3690.0" x2="270.0" y2="3720.0"/>
<line x1="240.0" y1="3750.0" x2="270.0" y2="3750.0"/>
<line x1="270.0" y1="3720.0" x2="270.0" y2="3750.0"/>
<line x1="240.0" y1="3780.0" x2="270.0" y2="3780.0"/>
<line x1="240.0" y1="3810.0" x2="270.0" y2="3810.0"/>
<line x1="270.0" y1="3810.0" x2="270.0" y2="3840.0"/>
<line x1="270.0" y1="3840.0" x2="270.0" y2="3870.0"/>
<line x1="270.0" y1="3870.0" x2="270.0" y2="3900.0"/>
<line x1="240.0" y1="3930.0" x2="270.0" y2="3930.0"/>
<line x1="270.0" y1="3900.0" x2="270.0" y2="3930.0"/>
<line x1="240.0" y1="3960.0" x2="270.0" y2="3960.0"/>
<line x1="240.0" y1="4020.0" x2="270.0" y2="4020.0"/>
<line x1="270.0" y1="3990.0" x2="270.0" y2="4020.0"/>
<line x1="240.0" y1="4050.0" x2="270.0" y2="4050.0"/>
<line x1="270.0" y1="4050.0" x2="270.0" y2="4080.0"/>
<line x1="270.0" y1="4080.0" x2="270.0" y2="4110.0"/>
<line x1="240.0" y1="4140.0" x2="270.0" y2="4140.0"/>
<line x1="270.0" y1="4110.0" x2="270.0" y2="4140.0"/>
<line x1="270.0" y1="4140.0" x2="270.0" y2="4170.0"/>
<line x1="270.0" y1="4170.0" x2="270.0" y2="4200.0"/>
<line x1="240.0" y1="4230.0" x2="270.0" y2="4230.0"/>
<line x1="270.0" y1="4200.0" x2="270.0" y2="4230.0"/>
<line x1="240.0" y1="4260.0" x2="270.0" y2="4260.0"/>
<line x1="270.0" y1="4260.0" x2="270.0" y2="4290.0"/>
<line x1="270.0" y1="4290.0" x2="270.0" y2="4320.0"/>
<line x1="240.0" y1="4350.0" x2="270.0" y2="4350.0"/>
<line x1="240.0" y1="4380.0" x2="270.0" y2="4380.0"/>
<line x1="240.0" y1="4410.0" x2="270.0" y2="4410.0"/>
<line x1="270.0" y1="4380.0" x2="270.0" y2="4410.0"/>
<line x1="270.0" y1="4410.0" x2="270.0" y2="4440.0"/>
<line x1="240.0" y1="4470.0" x2="270.0" y2="4470.0"/>
<line x1="270.0" y1="4440.0" x2="270.0" y2="4470.0"/>
<line x1="240.0" y1="4500.0" x2="270.0" y2="4500.0"/>
<line x1="300.0" y1="0.0" x2="300.0" y2="30.0"/>
<line x1="300.0" y1="30.0" x2="300.0" y2="60.0"/>
<line x1="300.0" y1="60.0" x2="300.0" y2="90.0"/>
<line x1="300.0" y1="90.0" x2="300.0" y2="120.0"/>
<line x1="300.0" y1="120.0" x2="300.0" y2="150.0"/>
<line x1="300.0" y1="150.0" x2="300.0" y2="180.0"/>
<line x1="270.0" y1="210.0" x2="300.0" y2="210.0"/>
<line x1="300.0" y1="180.0" x2="300.0" y2="210.0"/>
<line x1="300.0" y1="210.0" x2="300.0" y2="240.0"/>
<line x1="300.0" y1="240.0" x2="300.0" y2="270.0"/>
<line x1="300.0" y1="270.0" x2="300.0" y2="300.0"/>
<line x1="300.0" y1="300.0" x2="300.0" y2="330.0"/>
<line x1="300.0" y1="330.0" x2="300.0" y2="360.0"/>
<line x1="300.0" y1="360.0" x2="300.0" y2="390.0"/>
<line x1="270.0" y1="420.0" x2="300.0" y2="420.0"/>
<line x1="300.0" y1="390.0" x2="300.0" y2="420.0"/>
<line x1="270.0" y1="450.0" x2="300.0" y2="450.0"/>
<line x1="300.0" y1="420.0" x2="300.0" y2="450.0"/>
<line x1="300.0" y1="450.0" x2="300.0" y2="480.0"/>
<line x1="300.0" y1="480.0" x2="300.0" y2="510.0"/>
<line x1="300.0" y1="510.0" x2="300.0" y2="540.0"/>
<line x1="300.0" y1="540.0" x2="300.0" y2="570.0"/>
<line x1="270.0" y1="600.0" x2="300.0" y2="600.0"/>
<line x1="300.0" y1="570.0" x2="300.0" y2="600.0"/>
<line x1="300.0" y1="600.0" x2="300.0" y2="630.0"/>
<line x1="300.0" y1="630.0" x2="300.0" y2="660.0"/>
<line x1="270.0" y1="690.0" x2="300.0" y2="690.0"/>
<line x1="300.0" y1="660.0" x2="300.0" y2="690.0"/>
<line x1="300.0" y1="690.0" x2="300.0" y2="720.0"/>
<line x1="300.0" y1="720.0" x2="300.0" y2="750.0"/>
<line x1="300.0" y1="750.0" x2="300.0" y2="780.0"/>
<line x1="300.0" y1="780.0" x2="300.0" y2="810.0"/>
<line x1="300.0" y1="810.0" x2="300.0" y2="840.0"/>
<line x1="300.0" y1="840.0" x2="300.0" y2="870.0"/>
<line x1="300.0" y1="870.0" x2="300.0" y2="900.0"/>
<line x1="300.0" y1="900.0" x2="300.0" y2="930.0"/>
<line x1="270.0" y1="960.0" x2="300.0" y2="960.0"/>
<line x1="300.0" y1="930.0" x2="300.0" y2="960.0"/>
<line x1="300.0" y1="960.0" x2="300.0" y2="990.0"/>
<line x1="270.0" y1="1020.0" x2="300.0" y2="1020.0"/>
<line x1="300.0" y1="990.0" x2="300.0" y2="1020.0"/>
<line x1="300.0" y1="1020.0" x2="300.0" y2="1050.0"/>
<line x1="300.0" y1="1050.0" x2="300.0" y2="1080.0"/>
<line x1="270.0" y1="1110.0" x2="300.0" y2="1110.0"/>
<line x1="300.0" y1="1080.0" x2="300.0" y2="1110.0"/>
<line x1="270.0" y1="1140.0" x2="300.0" y2="1140.0"/>
<line x1="300.0" y1="1110.0" x2="300.0" y2="1140.0"/>
<line x1="300.0" y1="1140.0" x2="300.0" y2="1170.0"/>
<line x1="300.0" y1="1170.0" x2="300.0" y2="1200.0"/>
<line x1="300.0" y1="1200.0" x2="300.0" y2="1230.0"/>
<line x1="270.0" y1="1260.0" x2="300.0" y2="1260.0"/>
<line x1="300.0" y1="1230.0" x2="300.0" y2="1260.0"/>
<line x1="300.0" y1="1260.0" x2="300.0" y2="1290.0"/>
<line x1="270.0" y1="1320.0" x2="300.0" y2="1320.0"/>
<line x1="300.0" y1="1290.0" x2="300.0" y2="1320.0"/>
<line x1="300.0" y1="1320.0" x2="300.0" y2="1350.0"/>
<line x1="300.0" y1="1350.0" x2="300.0" y2="1380.0"/>
<line x1="270.0" y1="1410.0" x2="300.0" y2="1410.0"/>
<line x1="300.0" y1="1380.0" x2="300.0" y2="1410.0"/>
<line x1="300.0" y1="1410.0" x2="300.0" y2="1440.0"/>
<line x1="300.0" y1="1440.0" x2="300.0" y2="1470.0"/>
<line x1="270.0" y1="1500.0" x2="300.0" y2="1500.0"/>
<line x1="300.0" y1="1470.0" x2="300.0" y2="1500.0"/>
<line x1="300.0" y1="1500.0" x2="300.0" y2="1530.0"/>
<line x1="270.0" y1="1560.0" x2="300.0" y2="1560.0"/>
<line x1="300.0" y1="1530.0" x2="300.0" y2="1560.0"/>
<line x1="300.0" y1="1560.0" x2="300.0" y2="1590.0"/>
<line x1="300.0" y1="1590.0" x2="300.0" y2="1620.0"/>
<line x1="300.0" y1="1620.0" x2="300.0" y2="1650.0"/>
<line x1="300.0" y1="1650.0" x2="300.0" y2="1680.0"/>
<line x1="270.0" y1="1710.0" x2="300.0" y2="1710.0"/>
<line x1="300.0" y1="1680.0" x2="300.0" y2="1710.0"/>
<line x1="300.0" y1="1710.0" x2="300.0" y2="1740.0"/>
<line x1="300.0" y1="1740.0" x2="300.0" y2="1770.0"/>
<line x1="300.0" y1="1770.0" x2="300.0" y2="1800.0"/>
<line x1="270.0" y1="1830.0" x2="300.0" y2="1830.0"/>
<line x1="300.0" y1="1800.0" x2="300.0" y2="1830.0"/>
<line x1="300.0" y1="1830.0" x2="300.0" y2="1860.0"/>
<line x1="300.0" y1="1860.0" x2="300.0" y2="1890.0"/>
<line x1="300.0" y1="1890.0" x2="300.0" y2="1920.0"/>
<line x1="300.0" y1="1920.0" x2="300.0" y2="1950.0"/>
<line x1="300.0" y1="1950.0" x2="300.0" y2="1980.0"/>
<line x1="270.0" y1="2010.0" x2="300.0" y2="2010.0"/>
<line x1="300.0" y1="1980.0" x2="300.0" y2="2010.0"/>
<line x1="300.0" y1="2010.0" x2="300.0" y2="2040.0"/>
<line x1="300.0" y1="2040.0" x2="300.0" y2="2070.0"/>
<line x1="300.0" y1="2070.0" x2="300.0" y2="2100.0"/>
<line x1="300.0" y1="2100.0" x2="300.0" y2="2130.0"/>
<line x1="270.0" y1="2160.0" x2="300.0" y2="2160.0"/>
<line x1="300.0" y1="2130.0" x2="300.0" y2="2160.0"/>
<line x1="300.0" y1="2160.0" x2="300.0" y2="2190.0"/>
<line x1="300.0" y1="2190.0" x2="300.0" y2="2220.0"/>
<line x1="270.0" y1="2250.0" x2="300.0" y2="2250.0"/>
<line x1="300.0" y1="2220.0" x2="300.0" y2="2250.0"/>
<line x1="300.0" y1="2250.0" x2="300.0" y2="2280.0"/>
<line x1="270.0" y1="2310.0" x2="300.0" y2="2310.0"/>
<line x1="300.0" y1="2280.0" x2="300.0" y2="2310.0"/>
<line x1="300.0" y1="2310.0" x2="300.0" y2="2340.0"/>
<line x1="300.0" y1="2340.0" x2="300.0" y2="2370.0"/>
<line x1="300.0" y1="2370.0" x2="300.0" y2="2400.0"/>
<line x1="270.0" y1="2430.0" x2="300.0" y2="2430.0"/>
<line x1="300.0" y1="2400.0" x2="300.0" y2="2430.0"/>
<line x1="300.0" y1="2430.0" x2="300.0" y2="2460.0"/>
<line x1="300.0" y1="2460.0" x2="300.0" y2="2490.0"/>
<line x1="300.0" y1="2490.0" x2="300.0" y2="2520.0"/>
<line x1="270.0" y1="2550.0" x2="300.0" y2="2550.0"/>
<line x1="300.0" y1="2520.0" x2="300.0" y2="2550.0"/>
<line x1="300.0" y1="2550.0" x2="300.0" y2="2580.0"/>
<line x1="270.0" y1="2610.0" x2="300.0" y2="2610.0"/>
<line x1="300.0" y1="2580.0" x2="300.0" y2="2610.0"/>
<line x1="300.0" y1="2610.0" x2="300.0" y2="2640.0"/>
<line x1="300.0" y1="2640.0" x2="300.0" y2="2670.0"/>
<line x1="270.0" y1="2700.0" x2="300.0" y2="2700.0"/>
<line x1="300.0" y1="2670.0" x2="300.0" y2="2700.0"/>
<line x1="300.0" y1="2700.0" x2="300.0" y2="2730.0"/>
<line x1="300.0" y1="2730.0" x2="300.0" y2="2760.0"/>
<line x1="300.0" y1="2760.0" x2="300.0" y2="2790.0"/>
<line x1="300.0" y1="2790.0" x2="300.0" y2="2820.0"/>
<line x1="300.0" y1="2820.0" x2="300.0" y2="2850.0"/>
<line x1="270.0" y1="2880.0" x2="300.0" y2="2880.0"/>
<line x1="300.0" y1="2850.0" x2="300.0" y2="2880.0"/>
<line x1="300.0" y1="2880.0" x2="300.0" y2="2910.0"/>
<line x1="300.0" y1="2910.0" x2="300.0" y2="2940.0"/>
<line x1="270.0" y1="2970.0" x2="300.0" y2="2970.0"/>
<line x1="300.0" y1="2940.0" x2="300.0" y2="2970.0"/>
<line x1="300.0" y1="2970.0" x2="300.0" y2="3000.0"/>
<line x1="270.0" y1="3030.0" x2="300.0" y2="3030.0"/>
<line x1="300.0" y1="3000.0" x2="300.0" y2="3030.0"/>
<line x1="300.0" y1="3030.0" x2="300.0" y2="3060.0"/>
<line x1="300.0" y1="3060.0" x2="300.0" y2="3090.0"/>
<line x1="300.0" y1="3090.0" x2="300.0" y2="3120.0"/>
<line x1="300.0" y1="3120.0" x2="300.0" y2="3150.0"/>
<line x1="270.0" y1="3180.0" x2="300.0" y2="3180.0"/>
<line x1="300.0" y1="3150.0" x2="300.0" y2="3180.0"/>
<line x1="300.0" y1="3180.0" x2="300.0" y2="3210.0"/>
<line x1="300.0" y1="3210.0" x2="300.0" y2="3240.0"/>
<line x1="300.0" y1="3240.0" x2="300.0" y2="3270.0"/>
<line x1="300.0" y1="3270.0" x2="300.0" y2="3300.0"/>
<line x1="270.0" y1="3330.0" x2="300.0" y2="3330.0"/>
<line x1="300.0" y1="3300.0" x2="300.0" y2="3330.0"/>
<line x1="300.0" y1="3330.0" x2="300.0" y2="3360.0"/>
<line x1="300.0" y1="3360.0" x2="300.0" y2="3390.0"/>
<line x1="300.0" y1="3390.0" x2="300.0" y2="3420.0"/>
<line x1="300.0" y1="3420.0" x2="300.0" y2="3450.0"/>
<line x1="300.0" y1="3450.0" x2="300.0" y2="3480.0"/>
<line x1="300.0" y1="3480.0" x2="300.0" y2="3510.0"/>
<line x1="300.0" y1="3510.0" x2="300.0" y2="3540.0"/>
<line x1="300.0" y1="3540.0" x2="300.0" y2="3570.0"/>
<line x1="270.0" y1="3600.0" x2="300.0" y2="3600.0"/>
<line x1="300.0" y1="3570.0" x2="300.0" y2="3600.0"/>
<line x1="300.0" y1="3600.0" x2="300.0" y2="3630.0"/>
<line x1="300.0" y1="3630.0" x2="300.0" y2="3660.0"/>
<line x1="300.0" y1="3660.0" x2="300.0" y2="3690.0"/>
<line x1="300.0" y1="3690.0" x2="300.0" y2="3720.0"/>
<line x1="300.0" y1="3720.0" x2="300.0" y2="3750.0"/>
<line x1="300.0" y1="3750.0" x2="300.0" y2="3780.0"/>
<line x1="270.0" y1="3810.0" x2="300.0" y2="3810.0"/>
<line x1="300.0" y1="3780.0" x2="300.0" y2="3810.0"/>
<line x1="300.0" y1="3810.0" x2="300.0" y2="3840.0"/>
<line x1="300.0" y1="3840.0" x2="300.0" y2="3870.0"/>
<line x1="300.0" y1="3870.0" x2="300.0" y2="3900.0"/>
<line x1="300.0" y1="3900.0" x2="300.0" y2="3930.0"/>
<line x1="300.0" y1="3930.0" x2="300.0" y2="3960.0"/>
<line x1="270.0" y1="3990.0" x2="300.0" y2="3990.0"/>
<line x1="300.0" y1="3960.0" x2="300.0" y2="3990.0"/>
<line x1="300.0" y1="3990.0" x2="300.0" y2="4020.0"/>
<line x1="300.0" y1="4020.0" x2="300.0" y2="4050.0"/>
<line x1="300.0" y1="4050.0" x2="300.0" y2="4080.0"/>
<line x1="300.0" y1="4080.0" x2="300.0" y2="4110.0"/>
<line x1="300.0" y1="4110.0" x2="300.0" y2="4140.0"/>
<line x1="300.0" y1="4140.0" x2="300.0" y2="4170.0"/>
<line x1="300.0" y1="4170.0" x2="300.0" y2="4200.0"/>
<line x1="300.0" y1="4200.0" x2="300.0" y2="4230.0"/>
<line x1="270.0" y1="4260.0" x2="300.0" y2="4260.0"/>
<line x1="300.0" y1="4230.0" x2="300.0" y2="4260.0"/>
<line x1="300.0" y1="4260.0" x2="300.0" y2="4290.0"/>
<line x1="300.0" y1="4290.0" x2="300.0" y2="4320.0"/>
<line x1="270.0" y1="4350.0" x2="300.0" y2="4350.0"/>
<line x1="300.0" y1="4320.0" x2="300.0" y2="4350.0"/>
<line x1="300.0" y1="4350.0" x2="300.0" y2="4380.0"/>
<line x1="300.0" y1="4380.0" x2="300.0" y2="4410.0"/>
<line x1="300.0" y1="4410.0" x2="300.0" y2="4440.0"/>
<line x1="300.0" y1="4440.0" x2="300.0" y2="4470.0"/>
<line x1="270.0" y1="4500.0" x2="300.0" y2="4500.0"/>
<line x1="300.0" y1="4470.0" x2="300.0" y2="4500.0"/>
<line x1="0" y1="0" x2="300" y2="0"/>
<line x1="0" y1="0" x2="0" y2="4500"/>
</svg>
